<svg xmlns="http://www.w3.org/2000/svg" width="1611.881" height="835.343" viewBox="0 0 1611.881 835.343">
  <g id="Group_43" data-name="Group 43" transform="translate(2151.223 -249.622)" opacity="0.17">
    <path id="Path_23" data-name="Path 23" d="M127.837,462.689a1.051,1.051,0,0,0,.054-.131c3.689-17.552-10.1-37.246-25.032-45.62-3.471-1.946-13.152-6.366-15.3-.3-1.12,3.159,2.226,7.935,3.082,10.805,2.209,7.4,2.485,14.541-.807,21.647-9.1-1.264-12.8,6.553-15.711,14.3-8.987-4.478-15.686-1.075-21.515,6.244-4.236-7.416-12.115-8.782-20.351-9.146a1.066,1.066,0,0,0-.541.116.636.636,0,0,0-.7.323c-1.252,2.04-2.468,4.1-3.669,6.179-4.772-6.788-11.2-9.934-18.788-8.942C7.4,450.935,4.338,443.378-3.673,441.944c-.526-.095-1.066-.151-1.6-.211a1.468,1.468,0,0,0,.017-.391A51.2,51.2,0,0,1-4.3,419.266c.929-3.3,4.051-7.516,3.745-11.057-.533-6.152-7.815-4.68-11.917-3.423-17.213,5.269-26.94,22.484-28.557,39.393C-55.746,450.588-44.795,477-36.64,485.41a.89.89,0,0,0,1.387-.124c-7.639,16.188,19.7,33.784,33.738,37.314a19.382,19.382,0,0,0-.362,6.22c1.093,9.3,10.914,15.519,18.707,19.039a53.545,53.545,0,0,0,28.254,4.415c8.06-.966,16.8-3.7,19.8-11.965a26.733,26.733,0,0,0,1.438-8.1,1.111,1.111,0,0,0,.912.357c12.333-.456,24.113-4.529,33.567-12.532,7.318-6.2,8.989-13.457,6.453-20.863a.673.673,0,0,0,.11-.041,47.7,47.7,0,0,0,19.25-21.746C128.488,473.06,130.173,467.082,127.837,462.689ZM94.794,434.683a46.636,46.636,0,0,0-2.559-10.364c-.267-.762-2.16-4.2-1.879-4.85q2.726-1.507,5.457-3.016a22.908,22.908,0,0,1,4.833,2.04c14.14,7.317,26.823,25.32,25.1,41.63-.027-.024-.051-.053-.081-.078-4.122-3.387-11.129-4.262-16.109-5.7-5.743-1.664-11.709-3.792-17.636-4.9A23.666,23.666,0,0,0,94.794,434.683ZM-11.779,407.294c2.094-.325,7.049.007,8.106,2.31.188.405-1.546,3.576-1.734,4.066a52.472,52.472,0,0,0-2.73,9.847,51.507,51.507,0,0,0,.218,18.032c-4.682-.121-9.667.609-14.131.781-5.053.194-10.4-.114-15.388.776a17.881,17.881,0,0,0-1.886.447C-36.117,429.635-28.223,409.856-11.779,407.294Zm-23.389,76.988c-6.489-12.018-21.192-38.005,3.667-39.009q10.8-.437,21.6-.8c5.34-.175,9.755.517,12.993,5.131,1.781,2.54,2.656,5.907,3.618,8.881a27.2,27.2,0,0,0-3.432.973c-12.171,4.328-25.774,11.555-34.9,20.776a18.57,18.57,0,0,0-3.468,4.733A.907.907,0,0,0-35.167,484.282Zm7.908-4.423c6.824-5.757,14.93-10.412,22.963-14.284,5.535-2.666,11.67-5.786,17.961-5.007,5.455.677,9.072,4.381,12.873,7.926-5.809,10.131-11.129,20.558-16.63,30.844-3.263,6.1-8.649,13.564-10.875,21.1C-15.526,514.946-47.023,496.528-27.26,479.86Zm90.51,55.55c-1.676,12.76-15.547,15.233-26.52,14.682a50.738,50.738,0,0,1-24.8-7.719c-4.408-2.829-9.5-6.657-10.941-11.938-1.609-5.888,1.565-11.851,4.207-16.943,8.811-16.972,18.529-33.558,26.559-50.916a1.157,1.157,0,0,0,.5.143c4.484.274,9.742.374,13.656,2.841,5.293,3.336,6.643,9.975,8.236,15.543,2.51,8.782,4.611,17.693,6.242,26.673C61.976,516.518,64.419,526.484,63.25,535.409Zm42.976-29.391c-.717,6.863-5.538,11.2-10.895,14.947a52.761,52.761,0,0,1-28.1,9.1,1.217,1.217,0,0,0-.888.412c-.042-7.906-2.233-16.533-3.488-23.379-2.14-11.679-4.3-25.349-9.554-36.132,3.478-3.222,7.5-7.38,12.592-7.54,5.528-.175,11.21,4.362,15.129,7.741a145.829,145.829,0,0,1,17.34,18.207C101.971,493.8,106.863,499.934,106.227,506.019Zm.108-9.16a33.378,33.378,0,0,0-3.671-6.087c-7.147-9.537-16.506-20.788-27.249-26.7,1.512-2.77,3.075-6.135,5.247-8.321,6.272-6.31,10.454-3.874,17.034-2.115,6.8,1.815,14.49,3.214,20.911,6.1C137.562,468.268,116.192,490.16,106.334,496.858Z" transform="translate(-883.753 462.12)" fill="#fdecce" stroke="#0b314b" stroke-width="1"/>
    <path id="Path_24" data-name="Path 24" d="M-12.518,396.341c0-.017-.015-.024-.017-.039a.819.819,0,0,0,.046-1.012,24.474,24.474,0,0,0-10.44-9.265c-.083-4.228-.621-8.51-.917-12.734.827-.386.714-1.839-.372-1.793-17.548.713-35.281.223-52.787,1.4a.434.434,0,0,0-.475-.1,2.627,2.627,0,0,0-.313.18.432.432,0,0,0-.088.048,6.331,6.331,0,0,0-1.595,1.7c-.668.888-1.343,1.771-1.957,2.7a.528.528,0,0,0-.044.112.691.691,0,0,0-.208.7,49.474,49.474,0,0,0,2.426,6.688c.619,1.468,1.03,3.464,2.529,4.221a.219.219,0,0,0,.316-.128c.616-1.674-.626-3.726-1.238-5.313,4.929-.42,11.438-1.048,13.208,4.493-3.715.124-7.431.255-11.151.417a.631.631,0,0,0-.638.621.614.614,0,0,0-.812.5c-1.269,6.662-3.131,13.243-4.6,19.871,0,.024,0,.046,0,.07a.665.665,0,0,0-.269.466c-3.285,30.092-1.338,61.484-.242,91.674a1.141,1.141,0,0,0,.345.789.9.9,0,0,0,.873.74c18.465,1.084,37.25.036,55.725-.565.032,0,.056-.012.088-.017a.811.811,0,0,0,1.223-.24,192.922,192.922,0,0,0,13.47-24.42,1.139,1.139,0,0,0-.257-1.334A350.84,350.84,0,0,0-12.518,396.341Zm-2.554-1.264c.1.121.2.233.3.357a1.021,1.021,0,0,0-.9.335,105.108,105.108,0,0,0-7.274,8.146c.174-.543.347-1.089.526-1.628.455-1.385,3.077-7.011,2.094-8.013a.553.553,0,0,0,.871-.218.6.6,0,0,0,.166-.3c.624.192,1.243.393,1.854.636A6.217,6.217,0,0,0-15.072,395.077ZM-16.8,393.04c-.078-.019-.159-.044-.237-.061a20.333,20.333,0,0,0-2.607-.425,24.518,24.518,0,0,0-1.556-2.361c-.634-.956-1.289-1.895-1.954-2.826A39.587,39.587,0,0,1-16.8,393.04Zm-6.548-3.814c.306.56.6,1.126.915,1.681a20.543,20.543,0,0,0,1.543,2.618c-1.064.776-1.387,2.656-1.81,3.77-.663,1.749-1.4,3.532-2.074,5.335A81.522,81.522,0,0,0-23.349,389.226Zm-1.032-3.156c-.541-1.623-1.128-3.229-1.639-4.864-.528-1.689-.851-3.469-1.509-5.112l.024-.015c.695-.653,1.416-1.257,2.165-1.832A69.838,69.838,0,0,0-24.382,386.07ZM-78.3,375.854a7.7,7.7,0,0,0,1.345-1.827c16.594,1.376,33.782.379,50.429-.517a16.411,16.411,0,0,0-1.7,1.892.649.649,0,0,0-.724.3c-16.7.228-33.811.1-50.461,1.409C-79.04,376.691-78.661,376.281-78.3,375.854Zm-.105,5.961c-.472-1.169-.966-2.334-1.541-3.452,16.75,1.235,34.332.33,51.063-.808a27.429,27.429,0,0,0,3.319,8.906c-12.44.944-24.856,1.278-37.292,1.686C-63.652,381.075-72.7,380.524-78.4,381.815Zm2.791,8.319a.786.786,0,0,0-.01-.2l.027.007c4.711.311,9.454.442,14.206.459-.413,1.987-1.345,3.229-3.989,3.032-1.113-.082-1.981-.614-3.143-.408a5.114,5.114,0,0,0-2.162,1.031c-.878.665-4.361,5.713-6.108,3.115C-76.337,394.852-75.958,392.511-75.611,390.133Zm-1.531,8.729a3.034,3.034,0,0,0,2.062.669c3.855-.107,4.173-4.835,8.674-4.439,2.013.175,3.674,1.121,5.332-.59a5.214,5.214,0,0,0,1.228-4.11c11.582-.027,23.225-.774,34.662-1.727l.022,0c-.487,3.028-.861,6.092-1.2,9.163-4.8-3.457-11.954-3.806-15.077,1.963-1.9,3.508-3.478,4.9-7.663,5.027-1.778.053-3.684-.206-5.4.434a5.292,5.292,0,0,0-3.821,4.614c-7.2,0-14.412-.18-21.713-.551-.051,0-.083.029-.13.034A69.676,69.676,0,0,0-77.142,398.862Zm49.608,9.891c-9.647.7-19.145,1.055-28.657,1.1,1.722-1.519,6.475-2.45,8.091-2.654.607-.075,1.225-.007,1.835-.092a7.837,7.837,0,0,0,4.476-1.841c1.287-1.174,1.534-2.88,2.453-4.26,3.038-4.549,8.458-3.8,12.766-1.325C-26.894,402.714-27.195,405.747-27.535,408.753Zm.44,25.8c-6.824-1.106-6.3-10.434-11.553-13.692-5.829-3.612-14.749,1.332-16.139-7.887,9.016-.163,18.064-.992,26.84-1.664C-27.581,419.056-27.312,426.8-27.094,434.55Zm-23.959,65.819a1.157,1.157,0,0,0-.323.444c-9.461.063-18.92.16-28.347.626q-.664-18.282-.859-36.574c2.588-4.447,7.331-7.8,12.756-6.606,6.756,1.487,7.756,7.853,6.3,13.483-.7,2.7-3.517,9.41.856,10.376a13.914,13.914,0,0,0,5.332,2.787c3.674,1.276,6.8,2.867,7.641,6.989C-47,495.308-48.48,498.144-51.053,500.369Zm3.055.422a10.49,10.49,0,0,0,1.908-11.635,10.944,10.944,0,0,0-3.608-4.308c-3.021-2.111-7.125-2.028-9.987-4.163a.934.934,0,0,0-.091-.075c-2.852-1.57,1.651-11.455,1.358-14.621a11.323,11.323,0,0,0-6.541-9.177c-6.345-2.875-12.311.2-15.645,5.286-.017-2.035-.042-4.071-.049-6.106-.054-15.058.807-30.218.093-45.256a.7.7,0,0,0,.306.146,108.462,108.462,0,0,0,24.074,2.108c-.824,6.247,5.274,8.226,10.7,8.61,5.1.359,7.715,2.441,9.664,7.1a20.458,20.458,0,0,0,2.373,4.879c1.715,2.22,3.818,3.36,6.394,2.817.575,21.358.763,42.719,1.372,64.079C-33.1,500.689-40.55,500.742-48,500.791Zm35.609-23.76c-1.027,1.6-2.028,3.246-3,4.915l-.017-.007c-1.463-.386-3.212-2.659-4-3.952-2.155-3.508-.925-6.043,1.7-8.848,1.4-1.5,2-.7,3.043-2.824,1.595-3.234-3.662-15.223,2.074-15.39a.807.807,0,0,0,.33-.078C-12.345,459.576-12.528,468.305-12.389,477.031Zm.135-27.855a.752.752,0,0,0-.1-.036c-2.908-.407-4.929.592-5.785,3.588a9.419,9.419,0,0,0,.272,4.91c.7,2.964,1.221,3.03.081,6.489-1.754,5.323-.929,1.56-2.835,4.187-3.273,4.517-2.1,13.862,4.554,14.83-2.806,4.9-5.406,10.019-7.776,15.094,1.054-29.306-.289-58.825-1.925-88.067,4.007-3.971,7.761-8.234,11.447-12.5.55,13.09,1.732,26.132,2.011,39.245C-12.227,441.006-12.23,445.091-12.254,449.176Z" transform="translate(-935.032 416.247)" fill="#fdecce" stroke="#0b314b" stroke-width="1"/>
    <g id="Group_14" data-name="Group 14" transform="translate(-1324.324 715.613)">
      <path id="Path_25" data-name="Path 25" d="M-189.475,331.728c-.9-6.79-7.756-15.791-15.178-11.783a17.916,17.916,0,0,0-17.107,17.61c-.184,10.206,8.632,14.91,18.228,13.214A17.2,17.2,0,0,0-189.475,331.728Zm-2.872,6.494a15.124,15.124,0,0,1-14.466,10.417c-8.7.031-14.018-5.958-12.1-14.4,1.553-6.81,6.729-10.885,12.986-12.967a1.01,1.01,0,0,0,1.465.854C-194.715,317.8-190.341,331.546-192.347,338.223Z" transform="translate(257.296 -303.308)" fill="#fdecce" stroke="#0b314b" stroke-width="1"/>
      <path id="Path_26" data-name="Path 26" d="M-207.9,321.231a9.756,9.756,0,0,0-10.4,5.885c-.147.4.467.771.744.429a11.037,11.037,0,0,1,7.226-4.377c3.892-.4,5.494,1.97,5.907,5.388.093.757,1.152,1.247,1.592.427C-201.031,325.617-204.658,321.835-207.9,321.231Z" transform="translate(262.265 -300.251)" fill="#fdecce" stroke="#0b314b" stroke-width="1"/>
      <path id="Path_27" data-name="Path 27" d="M-144.224,316.358c-5.127-3.413-10.875-4.325-16.963-3.641-8.948,1-24.737,10.674-31.647,2.394a.458.458,0,0,0-.761.136c-2.209-1.155-4.645-1.771-6.978-.378-3.52,2.1-4.366,8.906-6.015,12.089-4,7.731-9.368,9.837-16.865,13.289-4.831,2.225-8.458,5.369-10.643,10.272-3.566,8.008-3.128,20.031,3.867,26.166,3.916,3.438,9.048,3.775,13.832,5.3,8.615,2.744,10.193,9.755,11.976,17.508,1.8,7.838,4.735,15.364,13.771,16.584,10.555,1.426,20.5-6.232,24.35-15.5,5.1-12.261,3.263-25.829,16.014-33.779,8.862-5.524,18.871-8.981,20.889-20.468C-127.381,334.853-134.812,322.619-144.224,316.358Zm.841,43.757c-6.839,3.889-14,6.979-17.831,14.243-4.129,7.824-3.965,17.013-7.3,25.116-5.242,12.746-26.539,22.132-32.4,4.578-2.062-6.172-2.047-13.377-6.166-18.736-6.318-8.214-19.571-4.568-24.656-14.218-3.62-6.875-2.749-16.477,1.585-22.782,3.909-5.686,10.621-6.329,16.156-9.68a24.43,24.43,0,0,0,7.786-7.763,36.015,36.015,0,0,0,3.021-5.968,18.689,18.689,0,0,1,1.086-3.013c1.649-2.491,7.769-4.886,10.5-2.994a.825.825,0,0,0,.981.029c4.212,2.775,10.09,1.172,15.173-.34,5.912-1.759,12.005-3.906,18.262-3.8,8.353.141,14.605,4.886,19.465,11.252C-128.646,337.92-129.768,352.374-143.383,360.115Z" transform="translate(236.29 -312.505)" fill="#fdecce" stroke="#0b314b" stroke-width="1"/>
    </g>
    <g id="Group_15" data-name="Group 15" transform="translate(-2006.753 641.577) rotate(45)">
      <path id="Path_28" data-name="Path 28" d="M57.373,7.949C55.6,5.778,51.359,4.537,49.452,6.468a3.722,3.722,0,0,0-4.531-1.321,4.395,4.395,0,0,0-2.127-3.8,4.585,4.585,0,0,0-5.9,1.456C34.51-.761,28.511-.244,28.038,4.855c-.045.491.676.534.819.108C30.066,1.369,34.938.506,36.1,4.682a.782.782,0,0,0,1.5-.006c.845-2.3,3.493-2.928,4.96-1.071,1.086,1.373.756,2.7-.222,4.033-.545.743.613,1.569,1.24.954a4.419,4.419,0,0,0,1.042-1.636c.98-.79,2.27-.107,3.874,2.063-.032,1.06,1.554,1.032,1.632-.007.142-2.734,3.517-2.025,4.947-.924a4.811,4.811,0,0,1,1.444,1.571q1.385,1.8-.895,3.843a.589.589,0,0,0-.495.241.8.8,0,0,0-.3,1.021c1.631,3.628-3.285,4.988-5.778,3.742a6.277,6.277,0,0,1-2.259-1.93c-.128-.176-1.582-3.445-1.135-3.434a.5.5,0,0,0,.134-.968,1.225,1.225,0,0,0-.514-.079.605.605,0,0,0-1.138.048c-.64,1.673-1.426,2.861-3.341,2.67a2.771,2.771,0,0,1-2.556-3.278c.059-.874-1.173-.925-1.443-.19A3.286,3.286,0,0,1,34.6,13.616q-3.36-.079-2.429-3.115a.476.476,0,0,0-.1-.608,3.187,3.187,0,0,0,.076-.35c.053-.54-.668-.6-.926-.246a8.275,8.275,0,0,1-1.666,1.843q-3.388,1.111-4.086-2.382a.715.715,0,0,0-1.428.006,2.8,2.8,0,0,1-2.65,2.942,1.542,1.542,0,0,1-1.815-.328,1.489,1.489,0,0,1-1.1-1.154.324.324,0,0,0,.165-.6A.948.948,0,0,0,18,9.5a.362.362,0,0,0-.46.094,2.276,2.276,0,0,1-1.435.982,1.942,1.942,0,0,1-.536-.01c.016-.067.035-.132.05-.2a.532.532,0,0,0-1.025-.28l0,.006c-.011-.012-.028-.02-.039-.034a1.684,1.684,0,0,1-.3-1.455c.124-.6.592-.963.814-1.514a.534.534,0,0,0-.468-.678C12.517,4.628,13.266,1.173,16.312,1.8A5.9,5.9,0,0,1,19.7,4.114a.744.744,0,0,0,1.16-.154,4.159,4.159,0,0,1,1.587-2.085Q26.341.627,26.3,4.26a.7.7,0,0,0,1.373.181,3.684,3.684,0,0,0-2.91-4.461,4.579,4.579,0,0,0-4.706,2.371C18.2.527,15.611-1.076,13.231,1a3.666,3.666,0,0,0,.3,5.831,3.186,3.186,0,0,0,.008,4.373,2.189,2.189,0,0,0,.526.361C11.089,19.746,8.787,28.209,6.24,36.517Q4.342,42.7,2.447,48.88c-1.166,3.8-2.691,7.576-2.7,11.583a.829.829,0,0,0,.446.7A58.032,58.032,0,0,0,1.651,69.2a76.929,76.929,0,0,0,2.42,10.371c.224.622,1.306.588,1.244-.173,0-.04-.009-.078-.012-.118,9.877-7.3,19.342-15.131,28.9-22.844Q41.411,50.619,48.615,44.8c3.1-2.511,6.272-4.84,6.558-9.048a.646.646,0,0,0-.052-.3,14.425,14.425,0,0,0,.614-5.813,75.208,75.208,0,0,0-.5-10.027.532.532,0,0,0-.179-.33A3.693,3.693,0,0,0,56.6,15.05a2.625,2.625,0,0,0,2.222-1.67C59.616,11.56,58.5,9.332,57.373,7.949ZM4.505,47.525Q6.4,41.344,8.288,35.161c2.364-7.725,4.983-15.441,6.953-23.278a3.285,3.285,0,0,0,2.31-.686,4.528,4.528,0,0,0,1.628,1.536A4.083,4.083,0,0,0,24.819,11a3.885,3.885,0,0,0,3.009,1.886,4.144,4.144,0,0,0,2.947-.909,3.282,3.282,0,0,0,1.966,2.845,3.71,3.71,0,0,0,4.327-1.213c1.2,3.01,5.565,3.532,7.412,1.368.009.047.018.095.027.135a7.352,7.352,0,0,0,4.239,5,5.5,5.5,0,0,0,1.47.385Q26.744,40.86,1.416,58.869C1.786,55.005,3.379,51.206,4.505,47.525ZM1.2,60.954Q27.742,42.17,52.4,20.92a.749.749,0,0,0,.28-.566,7.066,7.066,0,0,0,1.281-.44,47.523,47.523,0,0,0-.075,5.8c-.019.012-.039.016-.058.03-16.744,13.805-34.251,26.5-51.3,39.892A32.887,32.887,0,0,0,1.2,60.954Zm52.477-25.4C52.651,40.62,46.791,44,43.037,47.034Q36.56,52.277,30.085,57.525c-8.377,6.786-16.807,13.5-24.9,20.623C4.807,75.24,4,72.371,3.358,69.522c-.236-1.053-.449-2.123-.678-3.194,18.023-11.448,35-25.3,51.265-39.128.049,1.208.1,2.415.109,3.623a.708.708,0,0,0-.328.164A572.021,572.021,0,0,1,3.92,70.212c-.364.259-.041.851.351.606A346.764,346.764,0,0,0,54.039,32.6c-.022.868-.063,1.736-.155,2.606A.639.639,0,0,0,53.678,35.555Z" fill="#fdecce" stroke="#0b314b" stroke-width="1"/>
      <path id="Path_29" data-name="Path 29" d="M31.081,11.889A6.6,6.6,0,0,0,29.528,7.3c-.75-1.026-1.684-1.893-2.472-2.888A10.493,10.493,0,0,1,25.209.344.634.634,0,0,0,24,.349C22.3,5.012,29.578,7.626,29.783,12.095c-5.01,4.6-14.272-11.2-19.056-7.26a.5.5,0,0,0-.126.018c-2.368.839-2.633,3.422-1.667,5.493,2.056,4.408,9.779,5.654,9.818,10.95-2.917,6.366-7.152-3.456-10.12-4.406-1.623-.52-2.563.431-2.972,1.7a.568.568,0,0,0-.811.438A7.974,7.974,0,0,0,6.1,24.978c1.2,1.864,4,3.871,2.856,6.082a3.522,3.522,0,0,1-2.313.306c-.672-.152-1.3-.432-1.949-.641A4.6,4.6,0,0,0,1.275,30.7c-2.643,1.335-1.018,4.407.4,5.935.428.461,1.263-.157.894-.691C1.84,34.883.228,32.443,2.586,32c1.05-.2,2.191.53,3.173.805,1.11.312,2.729.467,3.577-.425a3.275,3.275,0,0,0,1.4-3.418,6.424,6.424,0,0,0-1.6-2.906,11.767,11.767,0,0,1-2.85-6.117c.348-.857,1.262-1.157,2.756-.884q.714.863,1.362,1.777a18.942,18.942,0,0,0,1.927,2.148,6.88,6.88,0,0,0,3.413,2.077c2.2.337,4.566-1.509,4.311-3.739A6.333,6.333,0,0,0,18.1,16c-1.929-2-11.1-6.337-6.941-9.952C15.6,4.659,21.686,13.215,25.7,14.633c2.324.821,4.745.265,5.477-2.241A.586.586,0,0,0,31.081,11.889Z" transform="translate(6.149 14.515)" fill="#fdecce" stroke="#0b314b" stroke-width="1"/>
    </g>
    <path id="Path_30" data-name="Path 30" d="M-73.948,355.11c-1.812-.41-15.931-.41-14.1,3.474a1.2,1.2,0,0,0-.137.568c0,.1.01.192.012.289l-.012,0c-8.37,3.433-8.583,14.422-3.583,20.892a10.5,10.5,0,0,0,7.14,4.335c-4.447,3.527-11.6,4.272-15.743-.187-4.347-4.68-3.4-16.341,4.611-16.465a1.038,1.038,0,0,0,0-2.074,7.342,7.342,0,0,0-5.839,1.815,10.034,10.034,0,0,0-1.619-.34.9.9,0,0,0-.039-.216A13.48,13.48,0,0,0-108.522,361c2.3-2.661,1.651-6.227-.455-8.585,2.13-3.113,2.7-8.641-1.693-9.828a5.534,5.534,0,0,0-2.886.065,42.523,42.523,0,0,1-.861-6.584,26.924,26.924,0,0,1,.09-2.739c.2-2.414.044-3.423,2.417-4.432,2.857-1.215,1.91.347,3.243,2.162a4.809,4.809,0,0,0,2.906,1.938,8.525,8.525,0,0,0,3.3-.087,13.413,13.413,0,0,1,3.106-.526l1.49.116-.09,4.33c-1.536,3.537-6.749,5.342-9.31,7.981a1.047,1.047,0,0,0,1.018,1.735c4.361-1.157,11.281-6.975,12.159-11.567,1.04-5.441-5.007-5.121-8.5-4.544-4.567.754-4.146-3.945-7.248-5.34a4.283,4.283,0,0,0-4.753,1.182c-3.569,3.782-2.507,12.2-.406,16.936-2.6,1.329-4.65,4.131-4.048,6.819a.669.669,0,0,0,1.306-.175c0-2.649,4.151-6.686,6.981-4.98,2.338,1.41,1.059,4.008.032,6.079a6.792,6.792,0,0,0-4.236-.987c-7.3.757-9.571,9.306-5.4,14.544-1.915,5.39-.714,16.455,5.9,16.429a.609.609,0,0,0,.477-.216c1.788,5.59,8.03,8.617,13.947,7.537a.465.465,0,0,0,.23-.121c5.359,3.324,13.142,2.067,16.836-3.4,4.733-.175,9.63-3.367,13.145-7.21a.5.5,0,0,0,.051-.085c4.122-.366,7.69-2.712,8.524-7.564C-59.932,362.206-67.17,356.646-73.948,355.11Zm-41.687-2.724a5,5,0,0,1,4.21.752.982.982,0,0,0,.6.5,4.578,4.578,0,0,1,.308,6.344,7.042,7.042,0,0,0-8.967,2.766C-121.1,358.764-120.6,353.65-115.635,352.386Zm1.387,27.319c-.015-.007-.027-.017-.042-.024-4.523-1.621-5.552-10.441-4-14.172a5.715,5.715,0,0,1,8.018-3.195c2.363,1.05,3.627,2.989,4.943,5.039A10.123,10.123,0,0,0-114.5,377.8,10.64,10.64,0,0,0-114.248,379.7Zm2.1-.97a7.893,7.893,0,0,1,9.009-9.134c-2.769,4.345-2.659,11.441-.093,15.254a11.191,11.191,0,0,0,2.126,2.351C-106.352,387.15-111.318,384.324-112.147,378.734Zm23.751,1.23c-5.076-4.738-5.892-14.223.428-18a18.533,18.533,0,0,0,11.411,14.427,15.422,15.422,0,0,0,4.415,1.046C-76.932,380.881-83.348,384.675-88.4,379.964Zm23.469-8.117c-3.312,4.983-10.393,2.928-14.4-.15a15.885,15.885,0,0,1-6.316-12.545,1.144,1.144,0,0,0-.494-.961c1.059-1.363,6.284-1.373,7.054-1.354a19.979,19.979,0,0,1,8.449,2.074C-66.137,361.236-61.556,366.777-64.927,371.847Z" transform="translate(-990.995 349.63)" fill="#fdecce" stroke="#0b314b" stroke-width="1"/>
    <g id="Group_16" data-name="Group 16" transform="translate(-689.806 256.81)">
      <path id="Path_31" data-name="Path 31" d="M200.58,235.09c-1.781-3.857-6.455-6.853-10.6-8.877a7.67,7.67,0,0,0,4.855-7.055c.012-6.48-6.108-10.107-11.912-10.754,3.224-24.771-14.414-49.14-39.564-54.349-26.187-5.424-59.225,4.74-67.9,30.958-4.454-1.987-10.486-1.05-12.223,4.066a5.675,5.675,0,0,0,1.458,6.009,6.054,6.054,0,0,0,.5.391c-6.274,2.783-13.27,10.284-14.334,17.105-.286,1.834-.017,2.06,1.458,3.125,2.04,1.475,5.252,2.035,7.519,3.294.827.459,1.622.956,2.4,1.475-3.219,3.52-.448,6.164,3.1,8.04-4.449,7.576.389,16.123,7.47,20.524,5.733,3.561,12.568,5.3,18.92,7.4q12.086,4.014,24.174,8.023c12.1,4.015,25.72,9.84,38.784,7.724,11.213-1.815,13.367-12.154,13.282-21.955,0-.027-.015-.048-.015-.075a11.247,11.247,0,0,0,4.523-8.518,40.971,40.971,0,0,1,12.272,11.337,1.108,1.108,0,0,0,1.734-.148c3.894-6.441,9.564-10.917,14.062-16.693A1.042,1.042,0,0,0,200.58,235.09ZM179.407,218.8a1.382,1.382,0,0,0,1.262-.963,45.839,45.839,0,0,0,1.957-7.443c3.994.638,8.175,2.377,9.522,6.506,1.433,4.406-2.475,9.849-7.318,7.22a.871.871,0,0,0-1.174,1.218.734.734,0,0,0-.007.107c.237,2.276,1.184,5.01-.171,7.135a5.323,5.323,0,0,1-4.943,2.128c-3.982-.293-6.054-3.979-7.223-7.348a4.961,4.961,0,0,0,.091-2.666.98.98,0,0,0-1.871-.068c-.905,2.574-1.7,4.871-4.674,5.689a7.693,7.693,0,0,1-3.564.075c-.763-.158-3.867-.953-3.627-2.232.142-.767-.893-1.422-1.358-.626-.037.061-.049.114-.078.172-.024-.036-.039-.078-.066-.114-.484-.691-1.864-.653-1.815.415a27.419,27.419,0,0,1,.132,3.542,1.081,1.081,0,0,0-.061.512,5.963,5.963,0,0,1-.4,1.385,7.13,7.13,0,0,1-4.251,4.071,6.466,6.466,0,0,1-6.338-1.507.909.909,0,0,0-1.057-1.15h0a8.231,8.231,0,0,1-1.639-3.935.835.835,0,0,0-1.03-1.259c-6.352,3.307-11.389-2.77-9.691-8.891a1.077,1.077,0,0,0-1.927-.89c-2.81,4.015-7.358-.279-5.616-3.806a213.11,213.11,0,0,0,32.862,5.272C162.065,221.885,174.569,224.964,179.407,218.8Zm-7.477,14.075a45.607,45.607,0,0,0-4.447-1.189,9.125,9.125,0,0,0,2.7-2.229A13.909,13.909,0,0,0,171.93,232.877Zm-60-19.524c4.173,1.157,7.46,1.977,8.96,2.348a4.3,4.3,0,0,0-.959,2.9,55.774,55.774,0,0,0-6.528-4.7.462.462,0,0,0-.5.776,69.218,69.218,0,0,1,11.562,11.152c3.234,4.088,5.308,8.632,8.018,12.986a18.3,18.3,0,0,1-5.318,1.339q-3.049,2.522-3.784-1.269-.341-1-.682-2c-.771-1.7-1.421-3.394-2.338-5.029a32.661,32.661,0,0,0-12.01-12.421A5.4,5.4,0,0,0,111.934,213.353Zm13.238,10.213a4.832,4.832,0,0,0,2.321-.451,10.786,10.786,0,0,0,.484,3.751C127.1,225.731,126.158,224.629,125.172,223.567Zm5.64,7.409a7.852,7.852,0,0,0,8.27,1.016,8.808,8.808,0,0,0,1.3,3.51c-2.023.75-4.183,1.781-6.333,2.686A31.167,31.167,0,0,0,130.813,230.976ZM65.766,188.606c2.067-3.273,5.973-3.151,9.317-2.407a42.978,42.978,0,0,0-1.6,8.28.677.677,0,0,0,1.316.218c3.49-13.568,11.014-25.8,23.739-32.585,13.2-7.04,30.783-8.416,45.232-5.039,26.884,6.281,41.594,33.549,34.259,59.4a1.346,1.346,0,0,0-.692.49c-3.708,5.09-20.476,1.759-26.03,1.218a204.533,204.533,0,0,1-26.764-4.4,209.138,209.138,0,0,1-22.423-6.579q-5.181-1.841-10.261-3.957c-4.122-1.715-14.412-4.461-15.694-9.367-.108-.412-.8-.633-1.02-.172-3.351,7.081,20.255,14.966,35.127,19.175.01,2.06-.641,4.025-2.7,4.92a4.535,4.535,0,0,1-1.676.364c-.147-.065-.284-.146-.43-.209a.338.338,0,0,0-.448.146,4.592,4.592,0,0,1-3.544-3.3c-.237-.788-1.6-1.036-1.79-.066q-.044,2.544-2.877,1.747c-1.847.83-2.921.468-3.248-1.048a10.406,10.406,0,0,0,.4-1.288.737.737,0,0,0-1.137-.776.436.436,0,0,0-.457.374c-.022.114-.017.216-.032.325-3.216,5.058-8.3,8.675-14.566,5.8-6.626-3.042-7.414-10.507-3.74-16.111a.619.619,0,0,0-.536-.919.731.731,0,0,0-1.049-.437c-1.79.847-4.584.6-5.293-1.6a3.3,3.3,0,0,1,.492-2.749,8.33,8.33,0,0,1,1.282-1.579,3.137,3.137,0,0,0,1.088-.495.688.688,0,0,0-.262-1.164c-1.4-.24-2.627-.247-3.686-1.361A3.875,3.875,0,0,1,65.766,188.606Zm5.8,28.129a10.269,10.269,0,0,0-3.718,5.388q-1.655-1.437-3.429-2.717a12.075,12.075,0,0,1,5.609-8.054A11.9,11.9,0,0,0,71.565,216.735Zm-18.8-3.564c-1.008-2.011,4.934-9.413,6.208-10.842a59.987,59.987,0,0,1,7.135-6.269c.152.075.3.172.453.233a5.169,5.169,0,0,0-1.343,5.434,4.529,4.529,0,0,0,1.123,1.64,21.825,21.825,0,0,0-10,12.093C54.663,214.765,53.181,214,52.768,213.171Zm9.009,4.5a38.636,38.636,0,0,0-4.217-1.727,25.648,25.648,0,0,1,10.613-11.441,5.053,5.053,0,0,0,3.713.073,11.147,11.147,0,0,0-1.8,5.019c-.029.012-.059.01-.088.024a11.655,11.655,0,0,0-6.328,9.255C63.051,218.46,62.425,218.052,61.776,217.674Zm1.177,3.307a45.64,45.64,0,0,1,4.721,3.806c.521.478,1.641.459,1.8-.4a10.744,10.744,0,0,1,3.187-6.055,11.9,11.9,0,0,0,3.615,2.984c5.636,3.013,13.35,1.089,16.528-4.323a4.668,4.668,0,0,0,7.861.281,6.443,6.443,0,0,0,5.875,2.579c4.476,3.447,8.468,7.164,11.42,12.076,1.624,2.7,2.348,5.606,3.566,8.471.32.754.325,1.955,1.035,2.528,1.495,1.206,3.693-.129,5.112-.619,4.687-1.618,9.444-3.207,13.984-5.211a8.284,8.284,0,0,0,12.343.257,33.014,33.014,0,0,1,16.2,3.1c-2.957,12.513-17.117,10.56-27.019,8.719-8.828-1.642-17.6-3.622-26.292-5.851s-17.318-4.736-25.854-7.5C87.773,234.76,60.067,226.827,62.953,220.981Zm99.572,43.677c-4.112,5.893-11.061,5.888-17.643,5.252-9.728-.939-19.1-4.6-28.3-7.637q-14.111-4.651-28.222-9.3c-9.968-3.29-28.428-10.153-21.76-23.828,1.91.885,3.862,1.567,5.119,2.057a412.121,412.121,0,0,0,44.437,14.481c8.549,2.259,36.428,11.9,49.5,5.832C165.482,256.108,165.235,260.778,162.525,264.658ZM186,249.423c-2.077.143-4.217-3.687-5.809-5.165-6.727-6.252-15.853-10.075-24.959-8.323a10.093,10.093,0,0,0,1.59-3.185c12.653-.347,22.7,4.82,33.165,11.4C188.683,246.067,186.467,249.391,186,249.423Zm4.882-6.538-.044.058A84.818,84.818,0,0,0,181.1,236.8a6.4,6.4,0,0,0,4.814-4.127c1.2.876,2.6,1.5,3.75,2.487a16.882,16.882,0,0,1,3.911,4.937.729.729,0,0,0,.093.114C192.653,241.152,191.613,242.035,190.887,242.885Zm3.8-3.687c-1.517-3.129-4.7-7.319-8.38-8a10.336,10.336,0,0,0-.316-4.711,6.2,6.2,0,0,0,.954.155c2.61,1.477,8.71,4.323,9.647,6.768C197.447,235.65,196.273,237.528,194.685,239.2Z" transform="translate(-50.754 -152.642)" fill="#fdecce" stroke="#0b314b" stroke-width="1"/>
      <path id="Path_32" data-name="Path 32" d="M67.892,165.493a.545.545,0,0,0-.575-.427.337.337,0,0,0-.394-.342,4.6,4.6,0,0,0-4.163,4.837.673.673,0,0,0,.641.677C65.925,170.418,68.4,168.07,67.892,165.493Zm-3.752,3.425a4.617,4.617,0,0,1,2.615-3.382.66.66,0,0,0-.012.068A3.133,3.133,0,0,1,64.14,168.919Z" transform="translate(-33.399 -135.417)" fill="#fdecce" stroke="#0b314b" stroke-width="1"/>
      <path id="Path_33" data-name="Path 33" d="M67.984,168.188a.582.582,0,0,0-.592-.64.415.415,0,0,0-.7-.3c-1.157,1.021-4.762,5.461-1.734,6.4a2.547,2.547,0,0,0,2.654-1.06C68.485,171.32,67.884,169.6,67.984,168.188Zm-2.272,4.151c-1.135.053.13-2.3.981-3.632C66.773,169.99,67.123,172.271,65.712,172.339Z" transform="translate(-31.924 -131.986)" fill="#fdecce" stroke="#0b314b" stroke-width="1"/>
      <path id="Path_34" data-name="Path 34" d="M99.587,162.555c.02-.437-.7-.582-.785-.131a9.433,9.433,0,0,1-1.049,2.923c-.149.257-.709,1.327-1.01,1.356-.465.046-.619-1.123-.616-1.371.015-1.79,1.211-2.909,2.678-3.7a.5.5,0,0,0-.347-.919c-2.683.281-4.361,3.828-3.368,6.176.494,1.172,1.7,1.659,2.647.643A8.029,8.029,0,0,0,99.587,162.555Z" transform="translate(12.938 -141.142)" fill="#fdecce" stroke="#0b314b" stroke-width="1"/>
      <path id="Path_35" data-name="Path 35" d="M102.531,165.793c-.492-1.509-2.192-2.479-3.645-2.877a.58.58,0,0,0-.281,0c.012-.049.015-.1.029-.146a.374.374,0,0,0-.714-.221,5.421,5.421,0,0,0,.1,4.714c.621,1.2,1.925,2.491,3.358,1.686A2.758,2.758,0,0,0,102.531,165.793Zm-1.636,1.9c-.939.868-1.9-.982-2.172-1.725a4.954,4.954,0,0,1-.272-1.989,10.346,10.346,0,0,1,2.265,1.388A1.6,1.6,0,0,1,100.895,167.694Z" transform="translate(16.743 -138.861)" fill="#fdecce" stroke="#0b314b" stroke-width="1"/>
      <path id="Path_36" data-name="Path 36" d="M99.866,165.084a.671.671,0,0,0-1.216-.16.461.461,0,0,0-.841-.25c-.9,1.3-2.725,1.815-3.173,3.438a2.4,2.4,0,0,0,.912,2.768c1.167.6,2.378-.408,3.084-1.262A5.564,5.564,0,0,0,99.866,165.084Zm-1.759,2.923c-.313.6-2.008,2.678-2.265,1.048-.24-1.528,2.052-2.647,2.742-3.877,0,.012,0,.019,0,.032A5.313,5.313,0,0,1,98.107,168.007Z" transform="translate(12.549 -135.782)" fill="#fdecce" stroke="#0b314b" stroke-width="1"/>
      <path id="Path_37" data-name="Path 37" d="M105.4,176.552a.455.455,0,0,0-.695-.335c0-.192-.139-.393-.367-.325-1.595.475-3.275.9-4.077,2.521a3,3,0,0,0,.7,3.411,2.131,2.131,0,0,0,3.158-.218A6.7,6.7,0,0,0,105.4,176.552Zm-1.744,3.149c-.386.907-1.336,2-2.05.672-.917-1.7,1.468-3.137,2.786-3.806a.375.375,0,0,0-.032.087A12.515,12.515,0,0,1,103.658,179.7Z" transform="translate(20.451 -119.509)" fill="#fdecce" stroke="#0b314b" stroke-width="1"/>
      <path id="Path_38" data-name="Path 38" d="M102.864,175.985l.083-.022a.469.469,0,0,0-.213-.912c-1.578.233-7.27,1.434-4.938,4.112a2.5,2.5,0,0,0,2.835.706,5.285,5.285,0,0,0,2.51-3.219A.546.546,0,0,0,102.864,175.985Zm-4.124,2.443c-.707-.776.555-1.2,1.132-1.451a17.669,17.669,0,0,1,2.167-.762C101.519,177.278,100.2,180.029,98.74,178.428Z" transform="translate(16.471 -120.698)" fill="#fdecce" stroke="#0b314b" stroke-width="1"/>
      <path id="Path_39" data-name="Path 39" d="M82.966,160.73c.046-.842-1.2-.854-1.3-.041a15.17,15.17,0,0,1-.673,3.144,3.833,3.833,0,0,1-.67,1.514.939.939,0,0,1-1.507-.238c-1.044-1.756,2.084-3.811,3.04-4.93a.269.269,0,0,0-.364-.4c-1.3,1.111-2.984,1.781-3.762,3.391a2.651,2.651,0,0,0,.736,3.438C81.7,168.832,82.861,162.663,82.966,160.73Z" transform="translate(-12.216 -142.563)" fill="#fdecce" stroke="#0b314b" stroke-width="1"/>
      <path id="Path_40" data-name="Path 40" d="M85.223,163.472a8.2,8.2,0,0,0-1.937-4.389c-.893-1.041-2.451-2.421-3.911-2.353a.547.547,0,0,0-.313,1c.1.078.2.136.3.206a.447.447,0,0,0-.1.226,5.469,5.469,0,0,0,5.34,6.062A.626.626,0,0,0,85.223,163.472Zm-5.053-5.019a7.614,7.614,0,0,1,2.145,1.511,6.9,6.9,0,0,1,1.534,2.952A4.517,4.517,0,0,1,80.17,158.453Z" transform="translate(-10.159 -146.817)" fill="#fdecce" stroke="#0b314b" stroke-width="1"/>
      <path id="Path_41" data-name="Path 41" d="M62.387,184.3a1.353,1.353,0,0,1-1.01-2.164c.274-.272-.051-.813-.411-.58a2.008,2.008,0,0,0,1.507,3.586C62.932,185.039,62.886,184.282,62.387,184.3Z" transform="translate(-37.162 -111.492)" fill="#fdecce" stroke="#0b314b" stroke-width="1"/>
      <path id="Path_42" data-name="Path 42" d="M64.422,184.113a2.612,2.612,0,0,0-2.16-2.3c-.333-.056-.506.437-.159.512A1.9,1.9,0,0,1,63.7,184.2c-.056.907-.748,1.383-1.5,1.73-.484.223-.171.907.313.83A2.5,2.5,0,0,0,64.422,184.113Z" transform="translate(-34.616 -111.059)" fill="#fdecce" stroke="#0b314b" stroke-width="1"/>
      <path id="Path_43" data-name="Path 43" d="M67.468,184.292a.552.552,0,0,0-1.008-.311c-.34.689-.641,1.7-1.387,2.062-.563.277-1.475,0-1.38-.737.061-.463-.692-.58-.812-.136a1.833,1.833,0,0,0,1.905,2.132C66.365,187.341,67.277,185.619,67.468,184.292Z" transform="translate(-33.296 -108.307)" fill="#fdecce" stroke="#0b314b" stroke-width="1"/>
      <path id="Path_44" data-name="Path 44" d="M73.288,183.816a1.018,1.018,0,1,1,.252-2.021.462.462,0,0,0,.154-.9,2.092,2.092,0,0,0-2.742,1.671,2.061,2.061,0,0,0,2.162,2.271C73.662,184.8,73.909,183.971,73.288,183.816Z" transform="translate(-21.563 -112.508)" fill="#fdecce" stroke="#0b314b" stroke-width="1"/>
      <path id="Path_45" data-name="Path 45" d="M74.9,181.319a.468.468,0,0,0-.509.786,2.39,2.39,0,0,1,1.062,2.7c-.342,1.043-1.238,1.356-2.189,1.662a.553.553,0,0,0,.108,1.087,3.269,3.269,0,0,0,3.2-2.564A3.44,3.44,0,0,0,74.9,181.319Z" transform="translate(-18.797 -111.855)" fill="#fdecce" stroke="#0b314b" stroke-width="1"/>
      <path id="Path_46" data-name="Path 46" d="M75.724,187.176c.09-1.521-.7-3.67-2.439-3.915-1.282-.182-2.705.8-2.16,2.154.1.233.475.129.472-.109-.012-.97,1.448-.992,1.935-.442a7.18,7.18,0,0,1,.893,2.441A.662.662,0,0,0,75.724,187.176Z" transform="translate(-21.468 -109.013)" fill="#fdecce" stroke="#0b314b" stroke-width="1"/>
      <path id="Path_47" data-name="Path 47" d="M94.071,191.635a4.334,4.334,0,0,1-2.5.529,2.951,2.951,0,0,1-2.14-1.647.535.535,0,0,0-.991.366c.528,2.37,4.755,4.131,6.291,1.676C94.988,192.149,94.6,191.439,94.071,191.635Z" transform="translate(3.722 -99.03)" fill="#fdecce" stroke="#0b314b" stroke-width="1"/>
      <path id="Path_48" data-name="Path 48" d="M93.824,190.681c-.9-2.484-4.466-2.574-5.922-.553-.34.468.362,1.05.778.648a2.887,2.887,0,0,1,4.136.432C93.186,191.612,94.032,191.253,93.824,190.681Z" transform="translate(2.834 -101.217)" fill="#fdecce" stroke="#0b314b" stroke-width="1"/>
      <path id="Path_49" data-name="Path 49" d="M97.176,191.85c-.927.124-1.517.495-2.444.01a2.365,2.365,0,0,1-.932-.825,1.328,1.328,0,0,1-.223-.587c-.017-.311.21-.526.137-.7.245.563,1.008.175.939-.347-.132-1.043-1.333-.91-1.957-.366a2.323,2.323,0,0,0-.179,2.9,3.923,3.923,0,0,0,2.492,1.824c.964.233,2.412.143,2.906-.868A.7.7,0,0,0,97.176,191.85Z" transform="translate(9.036 -101.336)" fill="#fdecce" stroke="#0b314b" stroke-width="1"/>
    </g>
    <g id="Group_17" data-name="Group 17" transform="translate(-1894.935 541.487)">
      <path id="Path_50" data-name="Path 50" d="M-145.075,175.072a.683.683,0,0,0-.837.633c-14.29-8.018-39.332,15.388-23.616,25.477,8.307,5.332,20.515-1.81,26.2-8.042C-138.676,188.044-137,177.865-145.075,175.072Zm-18.218,5.247c6.311-3.826,13.671-5.432,20.055-.992a.5.5,0,0,0,.389.09,7.9,7.9,0,0,1,.944,3.156.971.971,0,0,0-.844-.558c-8.972-.6-24.433,7.681-20.713,18.3a9.005,9.005,0,0,1-3.882-1.208C-175.926,193.9-169.681,184.192-163.292,180.32Zm1.269,20.036c-1.6-10.31,10.276-16.353,19.275-16.349a.9.9,0,0,0,.876-.543C-142.056,191.462-153.376,200.125-162.023,200.356Z" transform="translate(208.334 -142.559)" fill="#fdecce" stroke="#0b314b" stroke-width="1"/>
      <path id="Path_51" data-name="Path 51" d="M-85.415,173.472c-7.671-9.061-18.966-12.557-30.724-12.389a.482.482,0,0,0-.144,0A69.326,69.326,0,0,0-155.2,174.44a1.125,1.125,0,0,0-.279.315c-18.042,9.148-33.2,29.16-32.872,49.57.357,22.081,17.1,36.1,38.747,36.438,21.906.337,43.074-11.169,56.586-27.9C-80.279,217.093-70.529,191.062-85.415,173.472Zm-33.73-9.432c-2.947,1.89-7.223,1.941-11,1.752A71.179,71.179,0,0,1-119.146,164.04Zm-60.135,36.916A62.357,62.357,0,0,1-167.229,186.7c.3,7.166-3.882,11.254-9.757,14.847-1.343.82-2.74,1.662-4.024,2.618C-180.472,203.076-179.9,202-179.281,200.955Zm-4.068,8.741c7.3-7.283,19.708-11.269,17.149-23.867a.33.33,0,0,0-.017-.044c3.623-3.229,7.451-6.276,11.239-9.471a.844.844,0,0,0,.812-.131,70.619,70.619,0,0,1,19.6-9.2.725.725,0,0,0,.176.1c4.841,1.664,13.954,1.439,17.526-3.173,8.583-.34,16.858,1.172,23.377,5.386.3,5.293-.719,11.009.7,16.1.658,2.353,1.94,3.911,3.065,6.036,3.209,6.062,2.077,12.414-2.872,17.132-6.1,5.813-18.054,6.4-21.371,14.648-3.557,4.022-4.628,9.248-7.111,14.109-4.41,8.646-13.448,14.706-23.423,13.248a20.464,20.464,0,0,1-12.191-6.679c-1.986-2.094-3.63-4.505-6.352-5.742-2.47-1.123-5.014-.949-7.654-.835-6.592.279-12.484-1.288-14.639-7.052A42.089,42.089,0,0,1-183.349,209.7Zm66.089,40.271c-21.293,11.623-57.359,14.024-66.651-13.823a11.355,11.355,0,0,0,5.873,3.285c2.541.553,4.809,0,7.345,0,5.555.017,8.923,2.276,12.45,6a22.7,22.7,0,0,0,9.114,6.334,23.535,23.535,0,0,0,21.53-3.379c9.324-6.713,9.332-17.882,16.523-25.948a.691.691,0,0,0,.161-.713c6.817-6.727,19.328-7.03,24.049-16.88a14.743,14.743,0,0,0-.32-13.687c-2.524-4.643-3.813-7.846-3.948-13.192a60.227,60.227,0,0,0-.32-7.222A28.428,28.428,0,0,1-81.6,186.21C-74.778,211.518-96.109,238.419-117.26,249.967Z" transform="translate(188.351 -161.077)" fill="#fdecce" stroke="#0b314b" stroke-width="1"/>
      <path id="Path_52" data-name="Path 52" d="M-167.97,166.558a.368.368,0,0,0-.575.444,6.634,6.634,0,0,1,1,2.208c.108.827-.494,2.162-1.519,1.349-1.485-1.177-.046-3.248.766-4.372.247-.34-.291-.733-.575-.442-1.03,1.053-2.126,2.191-2.057,3.77a2.729,2.729,0,0,0,2.194,2.581,2.2,2.2,0,0,0,2.382-1.958A4.178,4.178,0,0,0-167.97,166.558Z" transform="translate(213.538 -154.564)" fill="#fdecce" stroke="#0b314b" stroke-width="1"/>
      <path id="Path_53" data-name="Path 53" d="M-162.691,169.325a7.118,7.118,0,0,0-2.649-3.054c-1.01-.655-2.49-1.351-3.7-.939a.457.457,0,0,0-.108.827.591.591,0,0,0,.059.024.316.316,0,0,0-.264.473,6.7,6.7,0,0,0,6.13,3.59A.621.621,0,0,0-162.691,169.325Zm-6.076-3.008,0,0a16.354,16.354,0,0,1,2.634.982,6.122,6.122,0,0,1,1.766,1.662A6.5,6.5,0,0,1-168.766,166.317Z" transform="translate(215.76 -155.185)" fill="#fdecce" stroke="#0b314b" stroke-width="1"/>
      <path id="Path_54" data-name="Path 54" d="M-180.993,184.633a4.843,4.843,0,0,0-2.754-3.452.43.43,0,0,0-.663.029,5.13,5.13,0,0,0-.89,4.7c.374,1.191,1.568,2.5,2.962,2.225C-180.749,187.82-180.695,185.875-180.993,184.633Zm-1.9,2.319c-1.042.01-1.509-1.851-1.556-2.571a4.675,4.675,0,0,1,.433-2.22,7.069,7.069,0,0,1,1.448,1.613C-182.209,184.414-181.343,186.937-182.891,186.952Z" transform="translate(192.429 -132.612)" fill="#fdecce" stroke="#0b314b" stroke-width="1"/>
      <path id="Path_55" data-name="Path 55" d="M-184.289,180.914c-.594.3-.179,1.22.45,1.055.105-.029.271-.078.472-.136.012.017,0,.034.02.051,1.069,1.215,2.515,2.707,4.322,2.433a2.7,2.7,0,0,0,2.16-2.115C-176.11,178.5-182.714,180.111-184.289,180.914Zm4.347,2.343a5.828,5.828,0,0,1-2.73-1.623c1.835-.514,4.924-1.232,4.691.345A1.63,1.63,0,0,1-179.943,183.258Z" transform="translate(193.809 -134.281)" fill="#fdecce" stroke="#0b314b" stroke-width="1"/>
      <path id="Path_56" data-name="Path 56" d="M-178.683,184.989c-.472-1.315-1.71-2.807-3.246-2.756a.561.561,0,0,0-.284,1.038l.054.027a.307.307,0,0,0-.186.143,4.273,4.273,0,0,0,2.385,6.019.581.581,0,0,0,.575-.153A4.315,4.315,0,0,0-178.683,184.989Zm-1.35,3.154a3.575,3.575,0,0,1-1.69-4.439.256.256,0,0,0-.01-.177,3.509,3.509,0,0,1,1.808,1.744A3.185,3.185,0,0,1-180.033,188.142Z" transform="translate(196.307 -130.911)" fill="#fdecce" stroke="#0b314b" stroke-width="1"/>
      <path id="Path_57" data-name="Path 57" d="M-170.71,195.51c-1.074,1.133.139,2.424,1.123,3.066a6.649,6.649,0,0,0,5.23.854l.01-.007c.154.146.306.289.465.417.379.311,1.089.034.9-.522C-163.668,197.262-168.533,193.21-170.71,195.51Zm2.9,2.506a4.833,4.833,0,0,1-1.262-.779c-.545-.556-.568-1.007.313-.922,1.536.15,2.585,1.237,3.6,2.295A6.919,6.919,0,0,1-167.809,198.016Z" transform="translate(213.254 -112.954)" fill="#fdecce" stroke="#0b314b" stroke-width="1"/>
      <path id="Path_58" data-name="Path 58" d="M-163.606,193.29a3.105,3.105,0,0,0-3.19,1.063c-1.167,1.545-.582,3.653-.054,5.315a.416.416,0,0,0,.166.226,4.562,4.562,0,0,0-.3.376c-.364.546.355,1.232.9.893C-164.372,200.1-159.683,194.379-163.606,193.29Zm-2.446,5.9a6.427,6.427,0,0,1-.188-3.493,1.915,1.915,0,0,1,2.321-1.283C-162.241,195-164.6,197.6-166.052,199.192Z" transform="translate(218.541 -115.285)" fill="#fdecce" stroke="#0b314b" stroke-width="1"/>
      <path id="Path_59" data-name="Path 59" d="M-151.9,177.305c-.682-1.633-2.7-2.339-3.916-3.51a.708.708,0,0,0-1.11.849c.027.044.071.082.1.126a.411.411,0,0,0-.051.085,4.683,4.683,0,0,0,.66,4.473c.822,1.092,2.458,2.174,3.767,1.191A2.725,2.725,0,0,0-151.9,177.305Zm-3.3,1.138a4,4,0,0,1-.844-2.9c1.177.89,2.83,1.531,2.921,2.974C-153.028,180.034-154.613,179.146-155.2,178.443Z" transform="translate(233.443 -143.219)" fill="#fdecce" stroke="#0b314b" stroke-width="1"/>
      <path id="Path_60" data-name="Path 60" d="M-150.917,172.315a7.513,7.513,0,0,0-5.8.245c-.526.311-.35,1.305.338,1.23,2.123-.238,4.5-.805,6.4.638s-.9,1.247-1.7,1.06a16.309,16.309,0,0,1-3.806-1.453.559.559,0,0,0-.565.963c1.72,1.009,4.048,2.273,6.12,2.072,1.074-.1,2.434-.706,2.412-1.965C-147.539,173.577-149.718,172.708-150.917,172.315Z" transform="translate(233.656 -145.706)" fill="#fdecce" stroke="#0b314b" stroke-width="1"/>
      <path id="Path_61" data-name="Path 61" d="M-148.276,165.278l-.046-.015a.661.661,0,0,0-.152-.024l-.015,0-.024,0a.645.645,0,0,0-.152.015,7.7,7.7,0,0,0-4.745,1.863c-1.086.982-1.754,2.819-.355,3.86,1.142.852,2.8.3,3.786-.529a5.868,5.868,0,0,0,2.165-4.585A.671.671,0,0,0-148.276,165.278Zm-1.866,3.1c-.477.684-1.453,1.7-2.409,1.475-1.424-.33.6-2.052,1.079-2.348a9.594,9.594,0,0,1,2.148-.973A6.222,6.222,0,0,1-150.142,168.376Z" transform="translate(237.218 -155.148)" fill="#fdecce" stroke="#0b314b" stroke-width="1"/>
    </g>
    <path id="Path_86" data-name="Path 86" d="M41.634,35.137C41.393,22.456,31.228,14,29.742,1.726v0c-.008-.08-.023-.156-.031-.236a.374.374,0,0,0-.188-.29,3.392,3.392,0,0,0-.784-.7,3.564,3.564,0,0,0-1.758-.6.312.312,0,0,0-.3.144c-.163-.067-.354-.032-.385.195C25.152,8.266,18.1,13.41,14.322,20.2c-2.969,5.33-6.336,12.54-5.076,18.8a7.393,7.393,0,0,0-1.693-.946,6.2,6.2,0,0,0-4.047-.165c-2.48.88-3.624,3.473-3.678,6.065C-.313,50.734,6.094,56,12.335,55.368c6.136-.625,10.943-6.992,9.009-13.343-1.245-4.091-5.583-6.964-8.8-5.183-.751-6.026,4.056-13.934,7.866-17.915,2.729-2.852,5.294-4.866,6.563-8.717.327,3.558,2.045,6.2,4.213,9.034a35.671,35.671,0,0,1,7.093,16.112,4.067,4.067,0,0,0-2.752-1.53c-2.615-.253-4.769,1.768-5.727,4.149-2.448,6.089,1.848,12.43,7.38,14.246,6.215,2.04,12.089-4.042,11.966-10.614C49.066,37.463,45.128,33.642,41.634,35.137ZM12.75,38.082c2.673-1.829,6.381.831,7.411,4.288a9.063,9.063,0,0,1-1.714,8.388A9.527,9.527,0,0,1,6.021,52.612,10.413,10.413,0,0,1,1.983,48.15C.266,44.466.544,38.141,6.622,39.016c2.468.356,4.225,3.331,6.723,2.393a.32.32,0,0,0-.161-.618,3.344,3.344,0,0,1-2.126-.584l.007-.009a5.405,5.405,0,0,1,1.373-1.86A.278.278,0,0,0,12.75,38.082ZM35.5,23.271c-2.784-4.752-7.261-8.294-8.088-14.1-.04-.283-.432-.228-.492.017a.459.459,0,0,0-.624.272c-2.36,6.214-8.23,9.546-11.246,15.453-1.9,3.716-4.2,8.118-3.092,12.313a6.362,6.362,0,0,0-1.82,2.389c-.208-.143-.414-.288-.619-.431a.179.179,0,0,0,.118-.172c-.169-8.52,4.369-17.544,9.34-24.078,3.192-4.2,8.086-8.438,7.931-14.225a3.824,3.824,0,0,1,1.313.706c.3.251.513.621.851.776.39,5.022,2.508,9.482,4.877,13.809,3.451,6.3,6.5,12.1,7.023,19.484a5.857,5.857,0,0,0-1.383,1.261.575.575,0,0,0-.1.175c-.114-.151-.228-.3-.34-.457a.448.448,0,0,0,.238-.422A28.11,28.11,0,0,0,35.5,23.271ZM37.87,36.265a5.207,5.207,0,0,1,.554.489,10.234,10.234,0,0,0-2.112-1.231A1.715,1.715,0,0,1,37.87,36.265Zm8.149,11.153c-3.485,5.414-10.257,4.8-13.817-.173a9.485,9.485,0,0,1-1.836-6.828,5.932,5.932,0,0,1,1.693-3.824q1.03-1.971,3.214-.831c.072-.028.141-.046.212-.07.519.274,1.03.564,1.525.881.74.472,1.377,1.082,2.1,1.563A.224.224,0,0,0,39.46,38a3.828,3.828,0,0,0,2.41,1.677.335.335,0,0,0,.173-.646,4.589,4.589,0,0,1-2-1.438.5.5,0,0,0,.238-.13c2.7-2.642,6.749-.848,7.535,2.716C48.372,42.715,47.362,45.333,46.019,47.419Z" transform="matrix(0.602, 0.799, -0.799, 0.602, -1509.197, 497.474)" fill="#fdecce" stroke="#0b314b" stroke-width="1"/>
    <g id="Group_22" data-name="Group 22" transform="translate(-1131.644 250.173)">
      <path id="Path_87" data-name="Path 87" d="M-38.293,150.761c-16.934-4.029-33.356,6.633-38.791,22.578-7.027-1.635-56.662-6.223-52.557,6.921a.344.344,0,0,0,.127.162c-.068,20.49,2.935,41.317,4.4,61.743,1.512,21.016,2.673,42.056,4.21,63.07a1.1,1.1,0,0,0,.719.975c4.983,6.514,14.982,7.8,22.623,8.2,9.735.5,20.5.478,28.611-5.6a1.389,1.389,0,0,0,.391-.463.985.985,0,0,0,1.047-.863q5.878-32.554,12.1-65.042,2.968-15.538,6.027-31.064c1.084-5.512,2.441-11.1,3.559-16.71-.663,8.811-1.084,17.659-.93,26.462a.279.279,0,0,0,.523.136.832.832,0,0,0,.519.294C-4.23,227.66-2.2,159.352-38.293,150.761Zm-13.341,60.006q-3.232,16.219-6.374,32.457-6.1,31.535-11.782,63.148a1.291,1.291,0,0,0-.475.211c-6.932,4.93-15.168,5.407-23.425,5.3-8.128-.107-18.859-.7-24.962-6.771-1.1-21.472-2.8-42.935-4.369-64.378-1.5-20.417-1.746-41.578-5.308-61.753a.494.494,0,0,0-.23-.352c2.639-5.844,19.35-5.468,24.079-5.5a158.852,158.852,0,0,1,26.891,1.883,35.144,35.144,0,0,0-.548,16.928c-2.6.053-5.173,0-7.622-.078-11.2-.386-32.742-1.739-39.009-12.792-.306-.541-1.282-.172-1.04.434,5.119,12.717,27.1,13.869,38.737,14.461,2.852.146,6.105.255,9.491.187a39.62,39.62,0,0,0,17.1,22.923,1.138,1.138,0,0,0,1.646-.665c4-9.58,8.04-19.134,11.782-28.811C-49,195.21-50.115,203.165-51.633,210.768Zm7.216,8.746c-.335-.029-.665-.044-1.008-.082a.827.827,0,0,0-.57.146c1.353-11.514,2.074-23.134,2.825-34.706,2.617,5.1,5.552,10.012,7.9,15.262,1.979,4.43,3.424,7.867-1.649,10.968a70.677,70.677,0,0,1-7.712,3.6c-.453.2-.108.81.313.74,4.5-.752,13.194-3.26,13.372-9.117.093-2.977-2.3-6.717-3.5-9.279a75.052,75.052,0,0,0-7.9-13.736.754.754,0,0,0-.7-.313c.022-.311.042-.619.061-.927a.761.761,0,0,0-.92-.82c.027-.4.073-.8.093-1.2a.35.35,0,0,0-.249-.378.414.414,0,0,0-.538-.437,6.1,6.1,0,0,1-3.126.027c-1.071-.23-1.526,1.414-.453,1.63a4.951,4.951,0,0,0,2.431-.146q-1.4,2.98-2.764,5.975a.423.423,0,0,0-.636-.155c-2.167,1.589-4.263,3.263-6.34,4.971s-5.3,3.6-6.753,5.876c-1.925,3.008,2.035,6.1,4.241,7.683.7.5,1.575-.466,1.155-1.147-.748-1.215-2.067-2.115-2.735-3.321-1.326-2.39.856-3.576,2.512-5.116,2.74-2.545,5.474-5.1,8.1-7.768-2.263,5.029-4.447,10.087-6.6,15.177-1.054,2.494-1.971,5.347-3.256,7.734-1.406,2.615-.841,3.707-3.818,2.2-3.586-1.817-6.648-6.4-8.634-9.67a35.455,35.455,0,0,1-3.9-9.129c1.025-.049,2.057-.124,3.089-.216a38.393,38.393,0,0,0,12,17.782.372.372,0,0,0,.528-.524,49.68,49.68,0,0,1-10.792-17.438c8.952-1.041,17.636-4.032,21.63-11.7a.983.983,0,0,0-1.7-.985A21.549,21.549,0,0,1-55,185.7a1.069,1.069,0,0,0-.856-.653c-2.316-.3-8.116-.015-9.412-2.38-.692-1.261.685-6.565,1.778-7.431,1.629-1.3,5.489.59,7.48,1.177,2.629.774,5.232,1.64,7.879,2.348.531.141.9-.65.384-.9a64.232,64.232,0,0,0-13.429-5.075c-2.593-.589-4.082.114-5.007,2.545-.793,2.089-2.216,7.693-.5,9.694a3.6,3.6,0,0,0,2.211.953,61.132,61.132,0,0,0,7.632,1,34.81,34.81,0,0,1-14.165,4.481,28.169,28.169,0,0,1,.12-15.436c4.1-13.673,19.421-22.884,33.109-16.569,25.979,11.984,23.386,54.281-6.526,58.48C-45.115,218.041-45.061,219.251-44.418,219.513Zm.431.034c32.659-3.069,33.87-50.639,5.934-62.095-13.284-5.446-27.77,2.431-33.263,15.007a29.793,29.793,0,0,0-1.38,19.175c-.991.092-1.986.165-2.979.214-2.8-13.714,2.529-28.512,15.562-35.948,19.6-11.179,38.98,3.746,43.823,22.986C-11.548,197.735-22.007,221.054-43.987,219.547Z" transform="translate(129.882 -149.907)" fill="#fdecce" stroke="#0b314b" stroke-width="1"/>
      <path id="Path_88" data-name="Path 88" d="M-74.911,173.082a50.89,50.89,0,0,0-1.4-10.017c-.411-1.613-.81-2.768-2.527-3.217-4.777-1.254-11.391,2.593-14.9,5.371a.754.754,0,0,0-.252.963A.481.481,0,0,0-94.4,167c2.637,2.693,5.389,5.262,8.2,7.778,2.111,1.892,4.469,4.813,7.2,5.844C-74.023,182.5-74.774,175.957-74.911,173.082Zm-4.041,5.466c-1.485-.31-3.789-3.03-4.985-4.032-3.062-2.564-6.083-5.172-9.16-7.719a1,1,0,0,0,.734-.216c2.991-2.353,8.057-5.325,12.076-4.791,3.549.468,3.307,9.165,3.434,12C-76.778,175.515-76.009,179.162-78.952,178.548Z" transform="translate(180.979 -136.078)" fill="#fdecce" stroke="#0b314b" stroke-width="1"/>
      <path id="Path_89" data-name="Path 89" d="M-81.722,159c-1.4-3.336-5.983-4.5-9.2-4.762-2.033-.163-8.006-.871-8.309,2.326-.181,1.914,2.287,4.318,3.253,5.776,1.761,2.661,3.5,5.342,5.3,7.972a.964.964,0,0,0,1.428.179.552.552,0,0,0,.907.247,57.029,57.029,0,0,0,4.929-6.5C-82.378,162.66-80.9,160.965-81.722,159Zm-2.02,2.407c-.132,1.373-1.839,3.292-2.576,4.442-.837,1.312-1.727,2.589-2.615,3.865a.9.9,0,0,0-.13-.337c-1.817-2.86-3.718-5.669-5.582-8.5-.6-.9-2.6-3.03-2.094-4.032.536-1.063,3.214-.771,4.408-.742C-89.139,156.171-83.32,156.979-83.743,161.4Z" transform="translate(174.188 -143.992)" fill="#fdecce" stroke="#0b314b" stroke-width="1"/>
      <path id="Path_90" data-name="Path 90" d="M-64.952,186.869a.768.768,0,0,0-.428-.9c-17.543-8.277-40.795-13.277-60.275-12.11a.469.469,0,0,0-.413.417c-.22-.073-.528.044-.511.32.888,15.461,2.62,30.866,3.549,46.329.929,15.485.983,30.982,1.7,46.469a.726.726,0,0,0,.912.682.54.54,0,0,0,.161.337c5.249,4.976,12.323,5.781,19.277,6.531,7.832.847,15.464.82,22.024-3.971a.9.9,0,0,0,.139-.15.594.594,0,0,0,.964-.349c6.362-27.049,10.148-55.023,14.16-82.5A1.012,1.012,0,0,0-64.952,186.869Zm-30.531-7.916c9.231,1.963,17.966,5.075,26.906,7.9a87.22,87.22,0,0,1-27.708,1.021c-8.9-1.24-24.108-4.711-29-13.117C-115.328,176.166-105.36,176.852-95.483,178.953Zm16.454,90.4a.748.748,0,0,0-.861.044c-10.085,6.933-29.939,5.112-39.616-1.955a.51.51,0,0,0-.345-.095,505.907,505.907,0,0,0-5.667-90.593c4.349,7.14,16.922,10.788,24.3,12.343,11.538,2.426,23.535,1.839,35.015-.592a.9.9,0,0,0,.636-.446C-69.881,215.151-75.309,242.183-79.029,269.352Z" transform="translate(134.657 -115.991)" fill="#fdecce" stroke="#0b314b" stroke-width="1"/>
      <path id="Path_91" data-name="Path 91" d="M-108.31,212.072c-.113-.451-.741-.315-.778.1a1.786,1.786,0,0,1-1.541,1.623,1.569,1.569,0,0,1-1.492-1.671c.017-.427-.69-.536-.763-.1a2.457,2.457,0,0,0,2.255,2.889A2.322,2.322,0,0,0-108.31,212.072Z" transform="translate(154.414 -61.722)" fill="#fdecce" stroke="#0b314b" stroke-width="1"/>
      <path id="Path_92" data-name="Path 92" d="M-107.262,210.991a3,3,0,0,0-3.9-.046c-.492.383.152,1.213.673.864a1.852,1.852,0,0,1,2.385.158c.68.735.237,1.482.286,2.319a.523.523,0,0,0,.78.444C-105.75,213.944-106.347,211.831-107.262,210.991Z" transform="translate(156.704 -63.858)" fill="#fdecce" stroke="#0b314b" stroke-width="1"/>
      <path id="Path_93" data-name="Path 93" d="M-109.066,208.431c-.073-.478-.81-.425-.922,0a4.116,4.116,0,0,1-1.14,2.174c-.423.383-1.419.594-1.561,1.23-.235,1.036,1.2.827,1.125.274.068-.019.139-.036.208-.063a3.584,3.584,0,0,0,.509-.238,3.839,3.839,0,0,0,1.064-.9A3.159,3.159,0,0,0-109.066,208.431Z" transform="translate(154.707 -66.936)" fill="#fdecce" stroke="#0b314b" stroke-width="1"/>
      <path id="Path_94" data-name="Path 94" d="M-118.694,186.7a1.845,1.845,0,0,1-2.414.116,1.528,1.528,0,0,1-.4-1.274,1.962,1.962,0,0,1,.235-.738c.059-.1.122-.209.186-.311a.258.258,0,0,0,.115-.068.3.3,0,0,0,.541-.058c.21-.825-.959-.813-1.424-.514a2.7,2.7,0,0,0-.944,2.892,2.8,2.8,0,0,0,5.063.687A.61.61,0,0,0-118.694,186.7Z" transform="translate(139.99 -101.759)" fill="#fdecce" stroke="#0b314b" stroke-width="1"/>
      <path id="Path_95" data-name="Path 95" d="M-118.36,182.653a2.248,2.248,0,0,0-2.979,2.271.381.381,0,0,0,.761,0c.1-.827,1.13-1.635,1.942-1.152.69.412.631,1.186.457,1.851a.516.516,0,0,0,.856.495C-116.31,185.04-117.076,183.138-118.36,182.653Z" transform="translate(142.222 -103.406)" fill="#fdecce" stroke="#0b314b" stroke-width="1"/>
      <path id="Path_96" data-name="Path 96" d="M-118.439,181.082c-.125-.684-1.135-.475-1.169.158a1.573,1.573,0,0,1-2.947.8c-.264-.459-1.1-.148-.885.369a2.707,2.707,0,0,0,3.082,1.7A2.558,2.558,0,0,0-118.439,181.082Z" transform="translate(139.148 -106.056)" fill="#fdecce" stroke="#0b314b" stroke-width="1"/>
      <path id="Path_97" data-name="Path 97" d="M-104.564,185.592c-.379.483-1.287,1.584-2.04,1.184-.257-.138-.467-1.031-.044-1.087a.576.576,0,0,0,0-1.152c-1.646-.109-2.042,2.089-1.152,3.127,1.336,1.562,3.816.146,4.1-1.57C-103.622,185.655-104.207,185.135-104.564,185.592Z" transform="translate(161.144 -100.532)" fill="#fdecce" stroke="#0b314b" stroke-width="1"/>
      <path id="Path_98" data-name="Path 98" d="M-106.276,182.215a2.231,2.231,0,0,0-2.688,2.436c.122.723,1.34.558,1.291-.172s.974-.987,1.509-.633a3.536,3.536,0,0,1,1.152,2.271c.132.677,1.206.512,1.2-.16C-103.835,184.382-104.471,182.492-106.276,182.215Z" transform="translate(160.087 -103.878)" fill="#fdecce" stroke="#0b314b" stroke-width="1"/>
      <path id="Path_99" data-name="Path 99" d="M-111.96,197.244c-.609.558-2.177,1.853-3.072,1.135-.364-.291-.692-1.48.007-1.567.565-.07.607-.91,0-.907-1.575.007-1.864,2.011-1.115,3.069a2.277,2.277,0,0,0,2.3.808,4.371,4.371,0,0,0,2.7-1.912C-110.776,197.385-111.546,196.866-111.96,197.244Z" transform="translate(149.184 -84.315)" fill="#fdecce" stroke="#0b314b" stroke-width="1"/>
      <path id="Path_100" data-name="Path 100" d="M-116.561,194.817c-.25.325.24.8.567.565a2.779,2.779,0,0,1,4.332,1.5.412.412,0,0,0,.8-.107C-110.805,194.043-114.9,192.634-116.561,194.817Z" transform="translate(149.047 -87.392)" fill="#fdecce" stroke="#0b314b" stroke-width="1"/>
      <path id="Path_101" data-name="Path 101" d="M-109.108,193.36a2.281,2.281,0,0,1-2.292,1.4,2.068,2.068,0,0,1-1.553-2.411.492.492,0,0,0-.949-.26,3.158,3.158,0,0,0,1.979,3.979,3.149,3.149,0,0,0,3.982-2.222C-107.817,193.186-108.751,192.683-109.108,193.36Z" transform="translate(152.768 -90.246)" fill="#fdecce" stroke="#0b314b" stroke-width="1"/>
    </g>
    <g id="Group_31" data-name="Group 31" transform="matrix(0.966, 0.259, -0.259, 0.966, -2126.089, 839.6)">
      <path id="Path_153" data-name="Path 153" d="M88.171,28.692c-21.466-5.864-45.335-3.341-67.248-1.934a.614.614,0,0,0-.521.332q-2.51-7.328-5.223-14.579C14.1,9.641,12.3,2.59,8.6,1.419A4.637,4.637,0,0,0,2.7.761c-3.325,2.069-3,6.566-2.141,9.783A68.74,68.74,0,0,0,9.772,30.087C4.449,33.252,6.4,42.416,6.937,47.414c.865,8.015,2.916,16.078,7.269,22.951A33.486,33.486,0,0,0,32.215,84.3c-9.641,12.918,43.147,13.912,35.6,1.135C78.824,82.134,87.5,74.5,93.14,63.544c3.748-7.284,7-16.234,7.583-24.429C101.158,33.019,93.046,30.024,88.171,28.692ZM6.182,2.292c.286-.017.582-.028.892-.03,5.714,1.74,9.273,16.889,10.915,21.6,2.169,6.224,4.2,12.5,6.214,18.774-1.179-.3-2.422-.645-3.669-1.044C17.8,36.1,14.666,30.8,11.805,25.36c-1.358-2.579-2.689-5.174-3.971-7.792C6.267,14.363.555,5.017,6.182,2.292ZM96.433,37.9c3.324,9.237-18.3,9.072-22.8,9.332a167.747,167.747,0,0,1-21.222-.159,162.529,162.529,0,0,1-22.722-3.2c-1.011-.215-2.477-.515-4.149-.911-1.247-4.154-2.578-8.281-3.953-12.393,12.376-.463,24.751-1.154,37.131-.594a155.758,155.758,0,0,1,19.087,1.986c3.957.672,15.394,1.76,18.626,5.639A.429.429,0,0,0,96.433,37.9ZM7.371,23.917a66.438,66.438,0,0,1-4.346-9.2A40.971,40.971,0,0,1,1.54,10.275L1.2,8.857Q-.2,3.838,3.988,2.644c-2.3,2.388-1.026,7.08.412,10.2A238.621,238.621,0,0,0,19.3,41.178c-.237-.083-.471-.169-.7-.256a.34.34,0,0,0-.033-.306C14.9,34.982,10.674,29.8,7.371,23.917ZM17.428,40.463c-3.808-1.573-6.984-3.739-7.274-6.689a.342.342,0,0,0,.2-.256c.072-.637.6-.765,1.106-.926C13.374,35.343,15.391,37.981,17.428,40.463ZM66.534,85.988c3.191,5.95-15.277,6.808-17.546,6.786-4.445-.043-18.8-.279-16.091-8.246,7.277,2.38,15.4,2.94,23.44,2.713a44.691,44.691,0,0,0,10.138-1.45A.643.643,0,0,0,66.534,85.988ZM83.8,74.222C76.621,81.637,67.5,85.182,57.242,85.651c-9.429.432-20.414,0-28.954-4.244C20.217,77.391,14.57,69.664,11.541,61.378a62.152,62.152,0,0,1-3.3-15.783c-.4-4.465-1.682-11.291,2.085-14.663.171.257.336.517.508.771a1.51,1.51,0,0,0-.934.807.5.5,0,0,0-.691.284c-1.8,6.231,9.162,9.574,13.522,10.827.646.186,1.3.348,1.95.522l.045.139a.6.6,0,0,0,1.053.155,150.812,150.812,0,0,0,28.554,4.148c5.367.308,47.475,2.189,43.62-9.738a.47.47,0,0,0,.022-.231,5.034,5.034,0,0,0-.249-.944c0-.01-.005-.01-.008-.018-1.3-3.552-6.236-4.165-9.592-5.049a126.034,126.034,0,0,0-21.09-3.568c-15.139-1.321-30.419-.727-45.572.236a.683.683,0,0,0-.285.079c-.152-.449-.313-.9-.467-1.344a.672.672,0,0,0,.2.028c20.43-1.312,41.183-2.566,61.467.835,4.476.75,9.372,1.716,13.181,4.3,5.439,3.687,3.078,10.071,1.682,15.329C94.732,57.978,90.731,67.065,83.8,74.222Z" fill="#fdecce" stroke="#0b314b" stroke-width="1"/>
      <path id="Path_154" data-name="Path 154" d="M71.709,6.725c-6.445-1.643-13.144-2.32-19.739-3.16A55,55,0,0,0,41.8,3.079C37.7,3.309,34.666,2.36,30.794,1A12.658,12.658,0,0,0,24.556.035C21.037.5,18.177,2.6,14.5,2.437,9.389,2.208,5.161-.846.1,1.333c-.207.091-.06.433.154.364C5.73-.1,10.616,3.989,16.111,3.483c2.567-.236,4.784-1.576,7.247-2.176,4.1-1,7.074.936,10.778,2.231,5.428,1.9,11.933.5,17.659,1.292,6.552.909,13.113,1.791,19.64,2.873C72.069,7.809,72.357,6.891,71.709,6.725Z" transform="translate(23.894 34.335)" fill="#fdecce" stroke="#0b314b" stroke-width="1"/>
      <path id="Path_155" data-name="Path 155" d="M7.763,14.738c-3.453-2.172-1-6.782-1.956-9.937C5,2.152,2.576,2.371,1.3.323A.7.7,0,0,0,0,.673,2.266,2.266,0,0,0,1.3,2.753c1.094.713,1.919.825,2.622,2.039a6.9,6.9,0,0,1,.532,3.963c-.095,2.753.01,5.647,2.958,6.8C7.9,15.743,8.173,15,7.763,14.738Z" transform="translate(25.151 7.409)" fill="#fdecce" stroke="#0b314b" stroke-width="1"/>
      <path id="Path_156" data-name="Path 156" d="M4.23,5.185C4.387,3.137,2.886,1.4,1.382.2a.811.811,0,0,0-1.15,1.14c1.446,1.6,2.877,3.111,1.682,5.413A14.884,14.884,0,0,0,.4,9.648c-.514,1.926.4,3.557,1.575,5.024.373.466,1.022-.129.787-.6a5.387,5.387,0,0,1,.172-5.825A6.838,6.838,0,0,0,4.23,5.185Z" transform="translate(43.554 6.212)" fill="#fdecce" stroke="#0b314b" stroke-width="1"/>
      <path id="Path_157" data-name="Path 157" d="M6.114.33C5.637-.344,4.337.043,4.665.94c.71,1.937.679,3.924-1.127,5.253-1.05.774-2.424.989-3.125,2.2a3.183,3.183,0,0,0,1.2,4.371.359.359,0,0,0,.434-.559c-2.722-3.054,2.987-4.355,4.2-6.59A5.111,5.111,0,0,0,6.114.33Z" transform="translate(64.367 8.446)" fill="#fdecce" stroke="#0b314b" stroke-width="1"/>
      <path id="Path_158" data-name="Path 158" d="M9.949.806C9.91-.092,8.482-.386,8.291.585,7.723,3.5,9.9,6.541,7.023,8.907c-1.646,1.354-4.11,1.268-5.693,2.826-1.171,1.152-2.487,5.149.279,5.16.224,0,.388-.313.2-.47q-.927-.928.5-2.117a2.4,2.4,0,0,1,2.156-2.371c.827-.328,1.681-.548,2.491-.921A6.9,6.9,0,0,0,9.563,9.159C11.468,6.757,10.066,3.51,9.949.806Z" transform="translate(84.826 6.582)" fill="#fdecce" stroke="#0b314b" stroke-width="1"/>
    </g>
    <g id="Group_32" data-name="Group 32" transform="matrix(0.875, 0.485, -0.485, 0.875, -2053.457, 362.161)">
      <path id="Path_159" data-name="Path 159" d="M81.181,39.973c-3.193-2.009-7.323-1.664-10.668-.1C72.084,18.6,60.022-3.143,35.861.2,15.56,3.008-.617,23.526,6.727,43.621c-5.353,1.215-8.947,7.5-5.634,12.406,2.48,3.674,6.682,3.394,10.2,1.459,1.912,10.292,4.124,20.646,6.352,30.854a.94.94,0,0,0,1.216.63.854.854,0,0,0,.27.257c11.831,7.4,33.6,8.779,44.473-1.591a.993.993,0,0,0,.248-1.19c2.735-11.258,4.871-23.842,4.955-35.4,5.219,3.691,13.746,4.517,15.84-3.067A7.329,7.329,0,0,0,81.181,39.973ZM61.9,86.13c-10.773,9.721-30.031,6.692-41.954,1.714a.882.882,0,0,0-.432-.059,162.691,162.691,0,0,0-6.638-31.313,14.4,14.4,0,0,0,1.707-1.467c.664,2.088,3.168,3.844,5.411,4.531.375,5.971,1.144,12.05,2.11,17.941.581,3.542,1.444,7.289,5,8.852a.637.637,0,0,0,.937-.584,3.05,3.05,0,0,0,1.174-1.339,17.722,17.722,0,0,0-.327-3.463c-.4-3.056-.806-6.115-1.159-9.179-.5-4.342-.626-8.787-1.456-13.079a8.633,8.633,0,0,0,3.361-3.327,7.984,7.984,0,0,0,3.5,3.279c-.28,4.8-.08,9.616-.17,14.419-.066,3.517-.812,7.484-.126,10.924.6,3.007,3.847,5.584,6.287,2.584a.76.76,0,0,0,.069-.124.625.625,0,0,0,.561-.435c1.536-3.751.414-9.488.147-13.447a114.736,114.736,0,0,0-1.547-13.4,8.615,8.615,0,0,0,5.4-4.387,6.571,6.571,0,0,0,.944,1.63c-.567,7.2-.473,14.479-.41,21.695.029,3.486-.172,6.488,3.234,7.91l.027.01c.088.036.168.077.261.111a.544.544,0,0,0,.107.014c1.08.3,2.363-.553,2.885-2.015,1.139-3.188.207-8.109.2-11.4,0-4.485.18-9.03-.238-13.494a.8.8,0,0,0-.072-.265c.085-.01.168-.013.254-.025a7.559,7.559,0,0,0,4.3-2.6c-.513,6.987-.528,14.014-.591,21.012-.024,2.574-1,6.012,1.845,7.123a.892.892,0,0,0,.889-.237l.512-.563A.758.758,0,0,0,58,82.863c2.353-1.381,1.876-5.3,2.041-7.6q.639-8.9.988-17.83a5.546,5.546,0,0,0,1.54-.018,6.909,6.909,0,0,0,4.241-2.837C64.54,64.875,63.113,75.757,61.9,86.13ZM21.052,59.779c.107.017.224.048.327.057a8.124,8.124,0,0,0,3.676-.567,82.956,82.956,0,0,0,.889,12.5c.2,1.786.4,3.569.65,5.35q.143,1.1.322,2.2a11.073,11.073,0,0,1,.052,5.238c-3.319-3.107-3.427-7.781-4.015-12.093C22.377,68.233,21.867,63.976,21.052,59.779Zm12.678-.863a7.508,7.508,0,0,0,3.233.494l.024,0c.279,4.044.743,8.077,1.015,12.125.118,1.759,1.493,10.809.717,13.509a.724.724,0,0,0-.679.131c-3.324,2.423-3.179-6.873-3.185-7.964-.009-2.428-.071-4.851-.167-7.274A87.457,87.457,0,0,0,33.73,58.915ZM49.136,71.771q-.01,2.891-.015,5.782c0,.155-.186,4.962-.933,6.551-3.269-2.181-1.917-11.634-1.994-14.762-.1-3.976-.226-7.962-.566-11.925a6.573,6.573,0,0,0,3.835,1.593.811.811,0,0,0-.062.226C49,63.386,49.15,67.607,49.136,71.771Zm8.1,10.246a.586.586,0,0,0-.213.227c-.541-1.612-.574-11.685-.582-12.343-.057-4.613-.1-9.231-.415-13.834a.356.356,0,0,0-.3-.342,8.171,8.171,0,0,0,.783-1.3A6.018,6.018,0,0,0,59.64,57.1q-.527,6.171-.915,12.353C58.581,71.692,59.292,80.739,57.234,82.017ZM81.6,48.6c-3.647,5.591-10.356,2.046-14.268-.9a.613.613,0,0,0-.451-.132.871.871,0,0,0-1.365.688c.047,1.283.453,2.451.126,3.745a4.228,4.228,0,0,1-3,3.1c-3.24.891-5.225-1.917-4.839-4.854.075-.571-.627-.841-1.074-.618a.893.893,0,0,0-1.551.292c-.444,2.61-.6,5.119-3.331,6.482-3.289,1.645-6.943-1.3-6.961-4.679a.742.742,0,0,0-.576-.7c-.239-.7-1.331-.506-1.556.142-1,2.918-2.618,5.882-6.158,6.035a6.742,6.742,0,0,1-6.213-4.157,6.07,6.07,0,0,0-.062-1.908c-.163-.84-1.389-.739-1.614.006-.842,2.8-1.728,5.492-4.915,6.4a6.452,6.452,0,0,1-4.22-.313c-1.48-.607-3.866-2.3-3.344-4.257a9.522,9.522,0,0,0,.57-1.028c.327-.7-.4-1.722-1.18-1.172C12.453,53,7.492,60.025,3.335,54.94c-3.527-4.314,1.289-8.322,4.852-10.187a.685.685,0,0,0,.294-.844.888.888,0,0,0-.008-.4C3.694,24.148,16.011,5.3,36.178,2.577,59.224-.542,68.633,20.429,67.8,39.92a1.154,1.154,0,0,0,1.075,1.263c-.085.654.427,1.4,1.183,1.1,2.77-1.1,5.567-2.241,8.541-1.072C81.539,42.366,83.515,45.66,81.6,48.6Z" fill="#fdecce" stroke="#0b314b" stroke-width="1"/>
      <path id="Path_160" data-name="Path 160" d="M7.862.556A2.61,2.61,0,0,0,4.412.7a3.741,3.741,0,0,0-.823,2.808A2.7,2.7,0,0,0,.08,6.786c.814,3.184,5.435,3.226,7.577,1.5C9.929,6.468,10.414,2.363,7.862.556Zm-.83,5.555a3.4,3.4,0,0,1-3.6,1.3c-.746-.2-1.721-.752-1.474-1.684A1.343,1.343,0,0,1,4.1,5.107a.51.51,0,0,0,.74-.059.769.769,0,0,0,.508-.721c0-.868.089-3.906,1.7-2.043A3.343,3.343,0,0,1,7.032,6.111Z" transform="translate(13.383 14.495)" fill="#fdecce" stroke="#0b314b" stroke-width="1"/>
      <path id="Path_161" data-name="Path 161" d="M7.6.418C5.035-.686.34.276,0,3.634a2.72,2.72,0,0,0,3.82,2.845C4.958,8.983,8.081,11.6,10.4,8.763,12.685,5.962,10.535,1.679,7.6.418ZM8.4,7.652c-1.819.757-2.515-1.326-3.177-2.626C5.216,5.008,5.2,5,5.194,4.987c.034-.09.076-.168.106-.265.146-.475-.481-.652-.743-.309a1.885,1.885,0,0,1-.213.185,1.051,1.051,0,0,0-.624.355A1.985,1.985,0,0,1,2.3,4.761L2.32,3.1c.227-.55,1.246-.926,1.786-1.081A4.164,4.164,0,0,1,8.578,3.429C9.518,4.638,10.135,6.931,8.4,7.652Z" transform="translate(13.595 28.36)" fill="#fdecce" stroke="#0b314b" stroke-width="1"/>
      <path id="Path_162" data-name="Path 162" d="M7.469,4.1A2.227,2.227,0,0,0,8,2.883,2.772,2.772,0,0,0,5.826.109C2.382-.792-.3,3.327,0,6.318a4.573,4.573,0,0,0,6.3,3.753A3.662,3.662,0,0,0,7.469,4.1ZM5.5,8.462A2.823,2.823,0,0,1,2.153,7.334a3.921,3.921,0,0,1,.346-4A3.676,3.676,0,0,1,4.6,1.728a1.89,1.89,0,0,1,1.288.166,1.082,1.082,0,0,1,.295,1.552.665.665,0,0,0-.563.352,1.128,1.128,0,0,1-.32.023c-.542-.049-.554.712-.12.88a2.035,2.035,0,0,0,.4.1.849.849,0,0,0,.25.3A1.865,1.865,0,0,1,5.5,8.462Z" transform="translate(25.823 17.145)" fill="#fdecce" stroke="#0b314b" stroke-width="1"/>
    </g>
    <g id="Group_34" data-name="Group 34" transform="translate(-1598.384 868.125)">
      <path id="Path_164" data-name="Path 164" d="M-155.42,475.4a38.845,38.845,0,0,0-7.959-8c-3.19-2.394-14.422-5.74-14.916-9.765a1.108,1.108,0,0,0-.974-.961c0-.728.049-1.456.078-2.208a.678.678,0,0,0-.042-.25c.389-.134.785-.25,1.169-.391a.806.806,0,0,0-.431-1.553c-.081.022-.159.036-.237.058a16.31,16.31,0,0,0-.169-6.776.983.983,0,0,0-.122-.264,3.825,3.825,0,0,0-.206-1.036.483.483,0,0,0-.45-.308.707.707,0,0,0-.445-.415c-5.415-1.87-10.961-1.793-16.577-.893-4.315.694-10.359,1.062-13.328,4.646a.843.843,0,0,0-1.5.294,13.043,13.043,0,0,0-.2,4.5,9.041,9.041,0,0,0,.634,2.343,6.051,6.051,0,0,0,.846,1.184c-.665.238-.77,1.417.054,1.545,1.032.16,2.077.269,3.124.376.55,9.163-9.1,11.147-14.649,16.15a23.745,23.745,0,0,0-6.3,9.677,44.692,44.692,0,0,0-.037,29.119,38.828,38.828,0,0,0,25.759,23.6c4.075,5.109,10.207,6.941,16.709,5.983,5.513-.813,13.336-3.423,15.158-9.272a.736.736,0,0,0-.193-.788c11.716-6.237,20.647-17.217,22.107-30.832A36.765,36.765,0,0,0-155.42,475.4Zm-40.851-31.222a36.165,36.165,0,0,1,15.762.745.759.759,0,0,0,.262.022,1.6,1.6,0,0,1-.1.2.9.9,0,0,0-.3.446c-3.53,4.2-26.38,6.458-28.574,2.428C-206.072,445.2-200.26,444.784-196.271,444.175Zm-13.524,11.378a26.321,26.321,0,0,1-.269-3.435,17.03,17.03,0,0,1,.068-2.669c2.676,3.935,12.257,1.863,15.679,1.422,2.468-.318,10.74-.427,13.979-2.984a32.521,32.521,0,0,1,.372,4.735A107.57,107.57,0,0,1-209.795,455.553Zm22.065,84.945a17.9,17.9,0,0,1-12.436-3.872,36.917,36.917,0,0,0,12.289.718,48.222,48.222,0,0,0,15.535-4.5C-174.5,537.973-182.9,540.207-187.729,540.5Zm-2.759-5.114c-21.562,1.079-37.913-17.312-37.632-37.913.073-5.264.788-10.657,3.038-15.463,2.894-6.177,7.36-8.26,12.7-12.055,4.347-3.088,7.656-6.89,6.751-12.3a66.309,66.309,0,0,0,25.028-2.982,9.365,9.365,0,0,0,.46,4.272.514.514,0,0,0,.071.131c1.438,4.425,7.133,5.194,11.044,7.319a35.91,35.91,0,0,1,17.836,23.539C-146,513.764-167.427,534.229-190.488,535.384Z" transform="translate(230.481 -442.019)" fill="#fdecce" stroke="#0b314b" stroke-width="1"/>
      <path id="Path_165" data-name="Path 165" d="M-164.789,478.276c3.209-2.38,2.845-8.918-.237-11.193a6.229,6.229,0,0,0-.934-.56,5.391,5.391,0,0,0,.034-4.857,5.94,5.94,0,0,0-4.882-3.408,7.239,7.239,0,0,0-7.874,7.016,5.165,5.165,0,0,0-.929-.012c-3.547.3-6.812,4.755-4.8,7.979a5.329,5.329,0,0,0-2.661-.291c-3.2.626-4.716,4.114-4.1,7.06a5.622,5.622,0,0,0-5.009,4.641,5.564,5.564,0,0,0-1.693-1.043c-3.106-1.167-7.451.747-8.121,4.083a6.165,6.165,0,0,0-4.912-.963,5.6,5.6,0,0,0-3.855,3.692c-.849-1.623-3.079-2.525-4.816-2.542a5.536,5.536,0,0,0-5.137,3.263,5.768,5.768,0,0,0,.719,6.15c1.049,1.225,3.427,2.775,5.257,2.421a5.182,5.182,0,0,0,7.167,4.68,5.644,5.644,0,0,0,3.6,4.107,7.075,7.075,0,0,0,7.035-1.652,5.512,5.512,0,0,0,6.345,1.713,5.241,5.241,0,0,0,2.752-2.933,9.275,9.275,0,0,0,4.691,1.5,5.9,5.9,0,0,0,5.261-5.23c4.447,2.3,11.971-1.882,9.52-7.2-.012-.027-.032-.049-.044-.075a5.939,5.939,0,0,0,3.388-5.521c4.982.233,7.213-7.283,4.373-10.7C-164.694,478.349-164.748,478.322-164.789,478.276Zm-7.431-18.158a4.217,4.217,0,0,1,4.444,2.188c.678,1.368.342,2.421-.012,3.7a5.813,5.813,0,0,0-5.562,3.668,7.047,7.047,0,0,0-.983-1.87,6.484,6.484,0,0,0-3-2.237C-176.709,462.929-175.246,460.469-172.22,460.117Zm-13.446,23.389c-.061-.138-.152-.262-.22-.4.707-1.946,2.688-3.644,4.89-3.134,1.891.437,2.644,1.9,3.084,3.537A6.394,6.394,0,0,0-182,487.992a5.837,5.837,0,0,0-3.168-1.713A5.856,5.856,0,0,0-185.666,483.506Zm6.279-4.835c-2.106-4.342,8.422-6.987,8.444-1.279-2.179,1.143-3.121,3.472-3.3,5.8a7.079,7.079,0,0,0-1.918-.087A5.456,5.456,0,0,0-179.387,478.671Zm-4.19-5.293c-.154-2.693.9-6.261,4.2-6.441a3.538,3.538,0,0,1,.878.073.526.526,0,0,0,.636.18,4.864,4.864,0,0,1,2.3,1.9,6.5,6.5,0,0,1,.746,3.365,7.176,7.176,0,0,0-1.759.09c-2,.41-4.117,2.123-4.5,3.988a4.22,4.22,0,0,0-2.573-2.957A.28.28,0,0,0-183.577,473.378Zm-3.429,1.334a3.619,3.619,0,0,1,3.273.837A6.627,6.627,0,0,1-182.415,478a.527.527,0,0,0,.23.23,5.27,5.27,0,0,0-4.369,3.848,5.518,5.518,0,0,0-2.632-1.88,4.875,4.875,0,0,0-.545-.1C-190.067,477.98-189.286,475.352-187.007,474.712Zm-2.248,7.45a4.326,4.326,0,0,1,2.079,2.732,4.479,4.479,0,0,1,.049,1.385,5.939,5.939,0,0,0-4.762,5.34,5.871,5.871,0,0,0-2.148-.91,6.258,6.258,0,0,0-1.147-4.944C-194.822,483.152-191.857,480.8-189.255,482.162Zm-9.366,3.19c2.28.881,2.945,3.149,2.7,5.3a5.5,5.5,0,0,0-1.409.415,4.83,4.83,0,0,0-2.5,2.55.356.356,0,0,0-.061-.075,5.767,5.767,0,0,0-3.339-1.327,5.428,5.428,0,0,0-1.57-3.52C-203.649,486.454-201.411,484.275-198.62,485.352Zm-12.059,3.117c3.033-.924,4.931,1.456,5.636,3.962a4.632,4.632,0,0,0-2.321,1.623,4.93,4.93,0,0,0-.824,2.149,6.856,6.856,0,0,0-3.586-2.166,5.439,5.439,0,0,0-2.177-.007A5.165,5.165,0,0,1-210.679,488.47Zm-7.392,8.539a5.552,5.552,0,0,0-.431,1.014c-3.048-.243-5.844-3.028-4.388-6.116a3.516,3.516,0,0,1,3.657-2.062c1.6.165,2.36,1.143,3.483,2.113a.784.784,0,0,0,.651.192,5.947,5.947,0,0,0,.276,2.115A6.106,6.106,0,0,0-218.071,497.009Zm6.413,6.14a4.452,4.452,0,0,0,0,.572c-3.361.708-6.59-2.773-4.613-5.958a3.914,3.914,0,0,1,4.52-1.8,5.2,5.2,0,0,1,3.07,3.018A4.753,4.753,0,0,0-211.657,503.149Zm10,2.256a4.113,4.113,0,0,0,.179.444c-2.673,1.395-7.448,2.161-8.268-1.776a3.634,3.634,0,0,1,3.4-4.068,5.25,5.25,0,0,1,4.359,2.407.792.792,0,0,0,.56.313A4.366,4.366,0,0,0-201.653,505.405Zm.9-3.826a6.366,6.366,0,0,0-5.09-3.028c-.042-.015-.064-.051-.112-.056-1.913-.243-.372-3.239.3-3.877a3.744,3.744,0,0,1,1.5-.864.923.923,0,0,0,.57-.126,3.758,3.758,0,0,1,2.842.764.634.634,0,0,0,.646.085,4.835,4.835,0,0,0,1.634,4.978,3.313,3.313,0,0,0-.817.774.5.5,0,0,0-.083.17A4.106,4.106,0,0,0-200.758,501.579Zm5.508,5.437c-1.675.665-4.139-.034-4.713-1.875-.607-1.933.971-3.755,2.769-4.236a.417.417,0,0,0,.286-.471,3.217,3.217,0,0,1,3.522,1.347A3.739,3.739,0,0,1-195.25,507.016Zm2.84-6.349a5.2,5.2,0,0,0-4.312-1.815,3.423,3.423,0,0,1,.5-6.3c.054-.019.105-.027.161-.044a.777.777,0,0,0,1.206-.044c.034-.044.056-.092.088-.136,2.5.08,3.923,2.783,3.669,5.286A5.134,5.134,0,0,0-192.41,500.667Zm5.755,4.665a4.829,4.829,0,0,1-2.713-.138c-.149-.051-1.338-.747-2.086-1.128a5.164,5.164,0,0,0-.071-1.426.649.649,0,0,0,.629-.682c-.09-1.948,1.054-4.163,3.256-4.3a3.89,3.89,0,0,1,4.026,3.576A4.2,4.2,0,0,1-186.654,505.332Zm2.725-8.173a5.567,5.567,0,0,0-3.955-1.216,4.827,4.827,0,0,0-1.448.4,5.528,5.528,0,0,0-1.4-3.685.565.565,0,0,0,.125-.284c.3-2.094,1.646-4.144,3.9-4.44a.551.551,0,0,0,.626.019c.022-.014.034-.034.054-.049a4.5,4.5,0,0,1,4.129,4.68.809.809,0,0,0,.105.4A5.74,5.74,0,0,0-183.93,497.16Zm2.035,3.576a5.044,5.044,0,0,0-.729-2.1.716.716,0,0,0,.294-.565c.012-2.278,1.108-4.42,3.522-4.942,2.133-.459,5.093.924,5.122,3.37C-173.637,500.648-178.7,501.49-181.894,500.735Zm8.387-7.671a5.891,5.891,0,0,0-6.766-1.038,5.916,5.916,0,0,0-1.1-3.251.524.524,0,0,0,.475-.291c1.583-2.909,4.733-4.83,7.967-2.974A4.227,4.227,0,0,1-173.507,493.064Zm4.254-5.6a5.6,5.6,0,0,0-1.9-2.935,6.611,6.611,0,0,0-1.964-1.053,6.563,6.563,0,0,1,2.495-4.112c1.663-1.092,3.921-.854,4.8,1.05A5.2,5.2,0,0,1-169.253,487.468Zm2.759-10.349a5.342,5.342,0,0,0-2.519-.31c.029-1.98-1.583-3.316-3.517-3.957a5.416,5.416,0,0,1,1.455-3.726,3.781,3.781,0,0,1,5.278-.146C-163.907,470.981-164.117,475.563-166.494,477.119Z" transform="translate(237.989 -418.923)" fill="#fdecce" stroke="#0b314b" stroke-width="1"/>
    </g>
    <g id="Group_35" data-name="Group 35" transform="translate(-1351.664 478.964)">
      <path id="Path_167" data-name="Path 167" d="M-72.362,249.032c-.386-5.631-3.055-10.769-9.021-12.052-2.348-.5-7.72.264-10.09,2.647-.076-1.521-.171-3.03-.274-4.512a1.058,1.058,0,0,0-.763-.965,1.037,1.037,0,0,0-.323-.74c-8.155-8.1-20.385-10.177-31.512-10.672-12.744-.565-26.818,1.337-37.972,7.763a.531.531,0,0,0,.411.966c11.188-3.612,21.865-7.023,33.811-6.9,11.477.121,25.184,2.014,33.635,10.456a1.067,1.067,0,0,0,.572.294c.426,11.465,1.179,23.546-4.667,33.929-6.479,11.5-20.7,15.664-33.324,14.84-12.6-.822-24.409-7.945-28.865-20.021-3.76-10.184-2.121-21.475-1.38-32.023.044-.636-1.01-.786-1.13-.153-2.2,11.654-3.517,24.648,1.756,35.713-5.7-.483-12.147.049-15.613,5.228-2.921,4.364-1.759,9.784,1.409,13.69,8.622,10.631,28.428,13.093,41.152,13.753a117.48,117.48,0,0,0,24.445-1.4c6.8-1.075,15.628-2,21.092-6.64,3.73-3.163,5.895-8.256,3.522-12.865-2.263-4.391-7.649-6.087-12.086-7.314a33.731,33.731,0,0,0,2.749-5.165,12.49,12.49,0,0,0,14.791.412C-73.989,263.336-71.892,255.874-72.362,249.032ZM-133.194,286.1c9.275.915,20.013-.784,27.951-6.181.443.662,1.306,1.094,1.776,1.776a6.467,6.467,0,0,1,1.057,2.53c-7.282,6.448-17.924,5.041-27.112,4.486-8.894-.541-23.054.153-30.01-6.426a3.939,3.939,0,0,1-.734-3.093,5.05,5.05,0,0,1,4.227-3.736A36.622,36.622,0,0,0-133.194,286.1Zm45.1,1.972c-2.253,4.917-10.293,6.29-15.058,7.334a119.938,119.938,0,0,1-28.856,2.841,89.427,89.427,0,0,1-27.041-4.7c-4.963-1.735-11.56-3.92-14.754-8.34-8.9-12.3,4.7-15.941,13.147-15.982a29.941,29.941,0,0,0,3.515,5.031,5.734,5.734,0,0,0-5,4.287c-.668,2.724.819,6.368,3.867,6.759a.464.464,0,0,0,.342-.082c7.064,5.667,20.37,4.939,28.41,5.417,8.933.531,23.621,2.7,29.183-6.409a.725.725,0,0,0-.822-1.043,4.854,4.854,0,0,0-.582-2.317,5.751,5.751,0,0,0-1.91-2.113,26.124,26.124,0,0,0,4.075-3.93c.345-.417.656-.849.971-1.279a.918.918,0,0,0,.455.315C-91.414,275.929-84.316,279.835-88.095,288.076Zm-3.214-41.067c2.539-1.075,5.073-2.443,7.852-1.167,3.542,1.628,3.371,5.422,2.534,8.561-1.279,4.8-6.438,9.764-11.222,5.526a.678.678,0,0,0-.46-.17A63.248,63.248,0,0,0-91.309,247.009Zm16.628,6.873c-1.306,9-10.391,17.663-19.321,10.878.421-1.2.763-2.423,1.071-3.658a6.8,6.8,0,0,0,8.157,1.638c3.434-1.555,5.3-5.3,6.037-8.8.731-3.464.384-7.411-2.881-9.473-2.935-1.858-6.846-1.293-9.686.512-.007-.8-.02-1.589-.044-2.38.656-1.587,4.508-3.321,5.618-3.646a9.671,9.671,0,0,1,8.179,2.062C-74.16,244.02-74.082,249.748-74.681,253.882Z" transform="translate(178.788 -190.193)" fill="#fdecce" stroke="#0b314b" stroke-width="1"/>
      <path id="Path_168" data-name="Path 168" d="M-110.41,228.855c-1.054-.354-1.808,1.344-.768,1.81q-2.385,1.248-4.767,2.5-2.168.156-4.339.216-2.895.1-5.79.08c-4.838-.029-9.659-.294-14.478-.7-1.113-.095-2.221-.211-3.331-.315-1.074-5.107-7.583-5.776-11.156-2.707a8.7,8.7,0,0,0-1.24,1.354c-4.54-.626-12.954-2.062-11.606-4.01.411-.589-.484-1.225-.978-.75q-.954.921-1.905,1.839a.88.88,0,0,0,.179,1.38,46.918,46.918,0,0,0,13.238,3.282c-2.123,4.233-2.194,10.3.563,13.692a32.806,32.806,0,0,1-3.483,1.751c-.651.277-.328,1.07.22,1.232a.29.29,0,0,0-.007.138c.856,2.336,1.893,4.595,2.674,6.96a58.5,58.5,0,0,0,2.138,6.5.87.87,0,0,0,1.137.383.6.6,0,0,0,.739.279,29.473,29.473,0,0,0,14.057-8.585,1.089,1.089,0,0,0,.186-.323.8.8,0,0,0,.108-.917c-1.309-2.166-4.038-3.753-6.027-5.3-2.123-1.657-4.329-3.2-6.541-4.738a.533.533,0,0,0-.355-.095.729.729,0,0,0-.834.058c-.888.662-1.778,1.264-2.678,1.836-1.294-3.469-1.879-7.588-.56-11.135a7.006,7.006,0,0,1,.78-1.485c1.519.17,3.04.327,4.564.493a247.58,247.58,0,0,0,27.5,1.851c2.823-.007,12.656,1.232,14.559-2.309C-107.5,231.048-108.446,229.515-110.41,228.855Zm-41.4,16.6c1.94,1.812,3.887,3.612,5.936,5.3a43.437,43.437,0,0,0,4.359,3.576,34.363,34.363,0,0,1-12,8.023c-.372-4.432-3.067-9.478-5.8-12.913A15.353,15.353,0,0,0-151.809,245.453Zm-1.751-14.02-.135-.017c2.576-2.1,6.308-2.479,8.135.868Q-149.562,231.888-153.56,231.434Z" transform="translate(190.016 -185.17)" fill="#fdecce" stroke="#0b314b" stroke-width="1"/>
      <path id="Path_169" data-name="Path 169" d="M-115.141,229.653c-7.194-4.127-17.154-4.148-25.243-4.8-9.432-.759-18.91-.541-27.679,3.277-.465.2-.132.936.342.8a75.76,75.76,0,0,1,25.994-2.712c8.172.57,18.306,1.007,25.593,5.116A.979.979,0,0,0-115.141,229.653Z" transform="translate(193.974 -187.538)" fill="#fdecce" stroke="#0b314b" stroke-width="1"/>
      <path id="Path_170" data-name="Path 170" d="M-153.606,240.476a.737.737,0,0,0-.227-.5,49.164,49.164,0,0,0-4.437-3.564c-.042-.051-.061-.119-.127-.148-.042-.017-.081-.024-.122-.039l-.286-.216a.714.714,0,0,0-1.079.439c-.213.126-.426.269-.653.405-.849.509-1.7,1.012-2.529,1.553a.676.676,0,0,0-.342.589c.017.133.01.332.132.427l.071.056a.74.74,0,0,0,.834.107c.849-.4,1.678-.83,2.512-1.257.289-.148.624-.289.929-.461,1.211,1.08,2.429,2.176,3.733,3.134-.653.607-1.213,1.349-1.915,1.892a10.66,10.66,0,0,1-3.376,1.708c-.91-1.87-1.94-3.685-2.977-5.492-.279-.485-1.154-.158-.937.393.817,2.067,1.639,4.136,2.6,6.14a.7.7,0,0,0,1.013.313.658.658,0,0,0,.24.007,10.755,10.755,0,0,0,4.376-1.684c1.115-.745,2.517-1.8,2.762-3.19A.719.719,0,0,0-153.606,240.476Z" transform="translate(199.54 -171.326)" fill="#fdecce" stroke="#0b314b" stroke-width="1"/>
      <path id="Path_171" data-name="Path 171" d="M-156.6,231.226a4.768,4.768,0,0,1-3.654-2.157c-1.005-1.788-.159-2.671.147-4.347a5.035,5.035,0,0,0-.423-3.554,8.3,8.3,0,0,0-3.092-2.792,12.9,12.9,0,0,1-4.667-3.959c-.438-.626-1.627-.662-1.8.233-.345,1.785.457,2.935,1.879,4.09a25.33,25.33,0,0,0,2.835,1.725,7.092,7.092,0,0,1,1.879,1.351c1.159,1.344.526,2.506.347,4.168-.4,3.707,2.336,7.263,6.328,6.863C-155.981,232.761-155.6,231.366-156.6,231.226Z" transform="translate(191.248 -202.575)" fill="#fdecce" stroke="#0b314b" stroke-width="1"/>
      <path id="Path_172" data-name="Path 172" d="M-155.049,217.215c1.147-2.259.46-4.942-.362-7.174a1.123,1.123,0,0,0-2.165.592c.766,3.294.643,3.877-1.255,6.909-.289.463-.964.6-1.074,1.194-.409,2.2.541,2.033,1.269,4.088,1.815,5.116-1.609,4.549-2.033,8.421a5.42,5.42,0,0,0,2.025,4.8c.6.534,1.7-.17,1.186-.907-2.83-4.056,1.989-5.57,2.8-8.852.489-1.984-.675-2.678-1.343-4.27C-157.089,219.427-156.215,219.5-155.049,217.215Z" transform="translate(204.942 -209.267)" fill="#fdecce" stroke="#0b314b" stroke-width="1"/>
      <path id="Path_173" data-name="Path 173" d="M-145.419,212.005a10.313,10.313,0,0,0-2.784,5.81,13.7,13.7,0,0,0-.1,3.319c.169,2.164.4,2.494-2.143,3.731-1.162.565-2.334.429-2.93,1.827-.7,1.637.543,3.772,1.48,5.019a.432.432,0,0,0,.773-.1c.734-1.917-1.142-3.457,1.162-4.464,1.463-.641,2.688-.143,3.755-1.645a5.3,5.3,0,0,0,.614-3.469,15.736,15.736,0,0,1,1.947-8.67A1.131,1.131,0,0,0-145.419,212.005Z" transform="translate(215.24 -205.85)" fill="#fdecce" stroke="#0b314b" stroke-width="1"/>
      <path id="Path_174" data-name="Path 174" d="M-132.917,213.55c-2.356.388-2.321,3.2-3.708,4.74-.729.81-1.424,1.157-1.835,2.261-.553,1.477-.093,3.091-.58,4.575a3.658,3.658,0,0,1-2.725,2.766c-1.375.4-2.189-.15-3.564-.172a3.5,3.5,0,0,0-1.974.4c-1.644,1.05-1.477,3.2-.988,4.811a.843.843,0,0,0,1.646-.221c-.039-3.552,3.855-1.613,6.047-2.322a6.924,6.924,0,0,0,3.676-2.838c1.519-2.443.479-4.837,2.461-7.275a9.2,9.2,0,0,0,1.47-1.783c.489-.97.318-2.159,1.26-2.918C-130.679,214.724-131.862,213.378-132.917,213.55Z" transform="translate(222.402 -203.181)" fill="#fdecce" stroke="#0b314b" stroke-width="1"/>
    </g>
    <g id="Group_36" data-name="Group 36" transform="translate(-1377.973 1000.128)">
      <path id="Path_175" data-name="Path 175" d="M-42.619,274.229a.655.655,0,0,0-.24-.059c.015-.1.041-.186.053-.286.056-.453-.415-.694-.811-.641a5.561,5.561,0,0,0,1.766-4.891.723.723,0,0,0-.7-.671c1.579-1.419,2.211-3.356.429-5.731a4.691,4.691,0,0,0,.907-4.911.671.671,0,0,0-1.293.354c1.756,8.854-32.367,7.833-38.375,7.436a79.223,79.223,0,0,1-17.1-2.932c-3.163-.93-18.449-5.624-17.735-10.641a.291.291,0,0,0,.173-.112,9.875,9.875,0,0,0,1.006-2,24.9,24.9,0,0,0,6.906,5.5c7.147,4.026,15.611,5.2,23.637,6.245,9.5,1.237,19.2,1.782,28.682.1,4.467-.79,15.089-2.318,14.057-8.893a.658.658,0,0,0-.844-.486c.009-.012.021-.021.029-.033,6.011-9.2-25.143-14.632-29.685-15.291a145,145,0,0,0-24.708-1.455c-5.2.139-13.956-.833-17.44,3.976a.647.647,0,0,0,.2.906,6.282,6.282,0,0,0,.023,2.356.51.51,0,0,0-.325.15c-.427.506-.9.971-1.319,1.487a.487.487,0,0,0-.011.556,3.531,3.531,0,0,0,.02,3.667.6.6,0,0,0-.1.182,14.192,14.192,0,0,0-.571,2.164.416.416,0,0,0-.418.2c-2.953,4.982,7.246,8.722,10.437,10.118a75.065,75.065,0,0,0,24.216,5.742c9.881.781,19.816.039,29.636-1.128,2.632-.312,6.457-.772,8.886-2.343,3.176,4.641-3.122,5.577-5.206,5.9-1.592.247-3.2.368-4.808.521-3.012.289-6.026.557-9.046.763a147.081,147.081,0,0,1-19.019.224A83.562,83.562,0,0,1-98.914,267.4c-3.5-.986-19.787-5.621-17-11.564.145-.312-.241-.677-.51-.391-4.548,4.837,5.371,8.913,8.51,10.3a77.345,77.345,0,0,0,26.6,6.012,177.136,177.136,0,0,0,32.326-1.4,13.52,13.52,0,0,0,5.736-2.12.669.669,0,0,0-.023.115c-.035,7.72-14.55,6.934-19.946,7.179a142.651,142.651,0,0,1-18.167-.336,137.173,137.173,0,0,1-18.533-2.782c-3.646-.812-20.027-4.779-16.857-11.366.159-.327-.289-.754-.55-.421a4.117,4.117,0,0,0-.869,4.32c-3.672-.413-8.274-.332-9.967,3.569a4.961,4.961,0,0,0-.429,1.958c-1.214,6.007,6.759,12.942,10.781,16,7.777,5.912,17.254,9.028,26.74,11.006,10.507,2.19,21.173,3.3,31.8,1.207,8.156-1.6,17.814-4.652,22.01-12.4a5.706,5.706,0,0,0,1.913-3.227C-34.518,278.492-39.126,275.862-42.619,274.229Zm-69.886-34.863c3.6-3.907,12.923-2.956,17.8-3.033a142.268,142.268,0,0,1,17.523.8A122.951,122.951,0,0,1-59.9,240.124a53.246,53.246,0,0,1,8.029,2.688,35.336,35.336,0,0,1,4.063,2.028l1.313.818q3.575,1.095,1.431,3.981c-.93,2.9-.82,2.408-3.548,2.88-1.624.28-3.26.515-4.895.718q-4.271.527-8.577.734a118,118,0,0,1-17.2-.43C-85.726,252.907-113.892,250.276-112.505,239.367Zm-1.606,4.72a.393.393,0,0,0,.037-.319c.241-.2.482-.406.727-.606,3.37,8.348,24.973,10.812,30.431,11.529a117.616,117.616,0,0,0,24.272.672c3.5-.267,7.009-.675,10.472-1.273,1.712-.3,4.089-.547,5.506-1.828,0,.008,0,.014,0,.023.653,6.7-16.333,7.77-20.3,8.022a104.708,104.708,0,0,1-18.506-.684,104.124,104.124,0,0,1-17.726-3.2C-102.653,255.4-117.414,249.8-114.111,244.087Zm-2.965,22.526c5.939,6.268,28.738,9.422,32.248,9.8a142.34,142.34,0,0,0,29.386.106c3.341-.335,8.422-.663,11.344-2.868a.355.355,0,0,0-.023.061c-.977,6.794-12.9,7.748-18.3,8.307a85.555,85.555,0,0,1-18.518-.212A129.281,129.281,0,0,1-100.87,277.8c-5.174-1.44-13.152-2.792-16.605-7.406A5.421,5.421,0,0,1-117.076,266.613Zm57.432,30.721c-9.6,1.844-19.094,1.033-28.624-.783-8.272-1.576-16.553-3.831-23.877-8.072-4.425-2.564-12.135-7.939-14.535-13.831a14.8,14.8,0,0,0,2.481,2.078c11.4,7.753,26.059,10.963,39.406,13.428,12.707,2.349,26.161,3.716,38.752.027a34.178,34.178,0,0,0,6.725-2.468C-43.889,293.674-52.542,295.968-59.644,297.334Zm20.727-11.542c-1.46,1.531-4.725,2.165-6.744,2.785a55.655,55.655,0,0,1-12.3,2.237c-8.579.622-17.2-.413-25.621-1.975a155.9,155.9,0,0,1-23.743-5.927,91.44,91.44,0,0,1-12.031-5.279c-1.808-.952-4.667-2.126-5.933-3.784q-1.589-8.1,4.686-7.757c.919-.041,1.84-.035,2.76,0a4.6,4.6,0,0,0-.556,3.059c-.191-.015-.4.144-.328.363,1.942,5.559,9.322,6.776,14.3,8.3a130.549,130.549,0,0,0,25.179,5.36,79.528,79.528,0,0,0,25.292-1.3c4.145-.933,9.293-2.274,10.78-6.466C-39.6,277.087-33.439,280.046-38.917,285.792Z" transform="translate(128.709 -234.777)" fill="#fdecce" stroke="#0b314b" stroke-width="1"/>
      <path id="Path_176" data-name="Path 176" d="M-55.964,246.008a.676.676,0,0,0-.985.751c.192.828.489,2.508-1.382,1.912-.727-.232-1.163-1.355-1.388-1.982a22.3,22.3,0,0,0-1.147-3.142,5.093,5.093,0,0,0-4.486-3.091.824.824,0,0,0-.768.628.533.533,0,0,0-.276.527,34.566,34.566,0,0,0,1.166,5.1,6.5,6.5,0,0,1,.348,2.562c-.368,1.6-2.128.1-2.644-.8-1.066-1.852-1.473-4-2.537-5.816-.565-1.8-3.519-4.846-5.458-3.251-.928.763-.809,2.468-.684,3.509.267,2.206,1.473,4.555.66,6.708a1.737,1.737,0,0,1-1.252-.718,6.969,6.969,0,0,1-.5-2.134,23.446,23.446,0,0,0-1.209-4.095,8.83,8.83,0,0,0-2.741-3.616c-1.282-1.643-3.991-2.423-5.186-.23a4.739,4.739,0,0,0-.22,3.243c.423,2,2.47,5.07,1.382,7.094a2.122,2.122,0,0,1-.383-.068q-1.317.656-1.687-.768a9.772,9.772,0,0,1-.7-2.067c-.337-1.276-.58-2.582-.974-3.842a10.221,10.221,0,0,0-1.942-3.7.658.658,0,0,0-.089-.839c-1.544-1.519-4.539-1.929-5.51.435a6.007,6.007,0,0,0,.166,3.834c.438,1.554,2.2,4.111,1.537,5.8-1.469.32-2.573.362-3.6-1.278a26.289,26.289,0,0,1-1.765-4.512c-.7-1.794-1.537-4.956-3.574-5.565a.138.138,0,0,0-.133.041.576.576,0,0,0-.076-.1c-1.359-1.286-3.377.1-3.97,1.525a5.339,5.339,0,0,0-.128,3.1c.124.627.371,1.242.452,1.876a1.108,1.108,0,0,1-.478,1.437,12.668,12.668,0,0,1-1.2-1.613c-.418-.784-.692-1.644-1.147-2.411a4.584,4.584,0,0,0-3.481-2.5,2.536,2.536,0,0,0-1.368,4.706.4.4,0,0,0,.482-.621c-.875-.815-.322-2.739,1.04-2.465,1.194.239,1.867,1.6,2.316,2.583.6,1.319,1.269,3.174,2.818,3.558a2.024,2.024,0,0,0,2.457-.943,4.727,4.727,0,0,0-.052-3.331,4.069,4.069,0,0,1-.047-2.857c.457-.784,1.2-.769,2-.89a.5.5,0,0,0,.295-.161c.127,1.59,1.406,3.406,1.93,4.741.76,1.935,1.153,4.205,2.438,5.893,1.218,1.6,5.5,3.331,6.177.362a.576.576,0,0,0-.078-.433,5.284,5.284,0,0,0-.307-3.627A30.9,30.9,0,0,1-94.927,241c-.2-.971-.559-2.621,1.371-2.618a3.821,3.821,0,0,1,1.194.407c1.424,2.082,1.794,4.435,2.328,6.9.382,1.763.8,3.82,2.232,5.07,1.867,1.628,6.167.316,4.678-2.45a.631.631,0,0,0-.394-.31,8.275,8.275,0,0,0-.34-2.7c-.322-1.287-.827-2.556-1.023-3.867a1.6,1.6,0,0,1,1.42-1.928c.246-.008,1.379.981,1.67,1.142a.708.708,0,0,0,.316.085,14.1,14.1,0,0,1,2.121,5.236c.4,1.779.493,4.043,1.641,5.547,1.924,2.515,4.768.4,4.437-2.3a.749.749,0,0,0-.444-.622,7.407,7.407,0,0,0,.038-2.5,29.958,29.958,0,0,1-.7-4.045c0-1.649.621-1.161,1.6-.289a6.364,6.364,0,0,1,1.2,1.746.8.8,0,0,0,.472.391c1.034,3.425,1.843,8.481,5.64,8.372,4.251-.123,2.241-7.1.8-10.052,3.539,1.345,2.176,7.2,6.093,8.371C-55.918,251.4-53.3,247.529-55.964,246.008Z" transform="translate(135.121 -234.133)" fill="#fdecce" stroke="#0b314b" stroke-width="1"/>
    </g>
    <path id="Path_185" data-name="Path 185" d="M-81.627,275.72c-11.45-13.5-27.914-24.291-46.381-21.814-12.281,1.647-22.677,7.768-31.864,15.562a1.037,1.037,0,0,0-.159-.206c-11.822-10.15-26.547-20.029-43.013-17.559-13.82,2.072-24.925,12.639-30.477,24.968-13.659,30.334,8.984,61.6,34.758,76.721,30.247,17.741,69.029,19.3,99.139.437,13.035-8.168,26.2-20.8,30.382-36C-65.07,302.665-71.847,287.258-81.627,275.72ZM-92.9,345.593c-24.26,19.592-57.56,23.772-86.74,13.593-27.019-9.422-55.5-33.265-55.3-64.065.1-15.441,9.251-31.416,23.5-38.134,17.968-8.469,36.106,2.625,49.517,14.141.025.022.051.024.073.041-2.549,2.271-4.99,4.672-7.37,7.115-15.5-16.9-48.206-14.772-52.19,11.4-1.962,12.887,7.485,23.352,16.533,31.207a122.54,122.54,0,0,0,13.857,10.439,1.3,1.3,0,0,0,1.644,1.046,96.132,96.132,0,0,0,23,10.526c24.279,7.288,58.9,2.984,72.681-21.077,12.859-22.447-7.893-49.48-31.5-51.54-34.432-3.006-53.6,32.047-64.986,58.842-2.223-1.431-4.378-2.952-6.472-4.537,6.66-13.229,13.2-25.587,21.745-37.823a.325.325,0,0,0,.051-.257c10.378-10.842,21.19-21.8,35.487-27.345,16.462-6.38,32.459-2.588,45.8,8.389,12.049,9.91,23.024,24.633,22.88,40.824C-70.818,323.471-81.636,336.5-92.9,345.593ZM-178.3,289.279c-8.625,9.718-16.114,21.771-20.033,34.024a99.522,99.522,0,0,1-11.486-10.6c-10.939-11.853-13.035-28.784,1.472-38.99,12.169-8.559,28.139-4.008,38.361,5.357-2.913,3.028-5.719,6.126-8.426,9.187A.686.686,0,0,0-178.3,289.279ZM-108.22,333.4c-10.4-20.841-25.407-39.47-44.681-52.842a54.308,54.308,0,0,1,5.452-3.125c22.474-11.028,52.69.774,54.822,27.617C-91.626,317.648-98.423,327.032-108.22,333.4Zm-45.958-52.017c18.274,14.793,33.39,32.241,43.81,53.335a61.942,61.942,0,0,1-10.846,4.927,1.056,1.056,0,0,0-.064-.645c-8.493-19.41-23.743-38.248-39.987-51.945A58.991,58.991,0,0,1-154.178,281.383ZM-140.3,312.85c6.523,8.666,11.592,17.991,17.291,27.156a1.088,1.088,0,0,0,.164.182,72.533,72.533,0,0,1-24.333,3.484c-14.2-.592-28.428-5.616-40.927-13.248,6.91-15.041,14.114-30.965,25.967-42.512A280.808,280.808,0,0,1-140.3,312.85Z" transform="translate(-894.148 717.115)" fill="#fdecce" stroke="#0b314b" stroke-width="1"/>
    <path id="Path_191" data-name="Path 191" d="M-8.243,494.215c-1.712-3.763-4.97-6.453-8.527-8.457-5.349-3.008-15.508-3.932-17.758-10.133,6.475-1.589,14.285-3.53,15.358-10.647,2.644-17.547-19.573-25.674-33.28-24.051-15.378,1.824-31.426,11.96-33.772,28.194-1.561,10.8,5.528,26.53,17.078,27.442a6.93,6.93,0,0,0,5.457.325,1.1,1.1,0,0,0,1.157-.138,37.578,37.578,0,0,0,7.837-7.8c.536-.67,1.052-1.305,1.563-1.919,5.655,9.3,6.783,22.207,16.09,28.937,7.277,5.26,14.72,3.29,21.288-2.052C-9.907,509.159-4.768,501.854-8.243,494.215Zm-19.71-10.284c6.538,2.715,15.163,6.812,17.445,12.841-2.982-3.2-6.927-5.145-10.865-7.37a123,123,0,0,1-17.658-12.554c.183-.061.347-.126.538-.182.531-.16,1.1-.315,1.678-.466C-35.788,480.646-31.962,482.264-27.953,483.931Zm-35.521,10.145c-16.826,1.116-24.714-17.938-18.005-31.829,6.448-13.355,23.2-20.288,37.5-18.765,7.91.842,15.6,4.588,19.673,11.645,3.307,5.737,2.634,12.171-3.723,15.533-3.058,1.618-6.746,2.132-10.06,3.025-4.75,1.279-9.131,2.931-12.758,6.332C-55.5,484.382-58.352,490.144-63.474,494.077Zm22.308,13.267c-4.17-7.033-5.8-14.82-10.559-21.511,4.356,6.266,8.649,12.564,12.685,19.039,2.187,3.513,4.048,7.707,6.981,10.733C-35.859,514.234-38.99,511.017-41.167,507.344Zm16.058,8.578a11.961,11.961,0,0,1-3.067.376c-5.643-3.731-9-12.139-12.7-17.537q-4.905-7.154-10.359-13.908c.252-.274.5-.56.758-.822,10.183,9.355,16.885,21.433,26.055,31.673C-24.649,515.774-24.871,515.862-25.109,515.922Zm2.71-.953c-9.16-10.424-16.136-23.2-27.261-31.766a28.515,28.515,0,0,1,2.605-2.273c9.133,10.582,18.286,21.8,28.518,31.307a.847.847,0,0,0,.47.223A21.07,21.07,0,0,1-22.4,514.969Zm8.72-6.671a28.016,28.016,0,0,1-3.488,3.46.869.869,0,0,0-.183-.7c-8.563-10.927-18.9-20.96-28.638-30.916a24.082,24.082,0,0,1,2.568-1.5c1.565,4.864,7.952,8.925,11.264,12.14,5.851,5.677,11.78,11.167,18.834,15.349a.993.993,0,0,0,1.008-1.71,99.561,99.561,0,0,1-16.4-12.8q-3.416-3.159-6.824-6.322c-2.187-2.026-5.545-4.248-6.886-7.152.656-.3,1.353-.582,2.082-.852A76.951,76.951,0,0,0-27.679,487.8c5.939,3.988,13.394,6.535,17.557,12.6a.956.956,0,0,0,.159.155C-10.149,502.888-11.269,505.459-13.679,508.3Z" transform="translate(-1878.298 546.507)" fill="#fdecce" stroke="#0b314b" stroke-width="1"/>
  </g>
</svg>
